<svg width="1920" height="787" viewBox="0 0 1920 787" fill="none" xmlns="http://www.w3.org/2000/svg">
<path d="M73.3013 62L73.3013 148.603L-1.69873 105.301L73.3013 62Z" fill="white"/>
<path d="M73.3013 62L148.301 105.301L73.3013 148.603L73.3013 62Z" fill="white"/>
<path d="M73.3013 148.301L148.301 191.603L73.3013 234.904L73.3013 148.301Z" fill="white"/>
<path d="M73.3013 148.301L148.301 105V191.603L73.3013 148.301Z" fill="white"/>
<path d="M-1.69873 191.603L73.3013 148.301V234.904L-1.69873 191.603Z" fill="white"/>
<path d="M-1.69873 191.603L-1.69873 105L73.3013 148.301L-1.69873 191.603Z" fill="white"/>
<path d="M216.301 62L216.301 148.603L141.301 105.301L216.301 62Z" fill="white"/>
<path d="M216.301 62L291.301 105.301L216.301 148.603L216.301 62Z" fill="white"/>
<path d="M216.301 148.301L291.301 191.603L216.301 234.904L216.301 148.301Z" fill="white"/>
<path d="M216.301 148.301L291.301 105V191.603L216.301 148.301Z" fill="white"/>
<path d="M141.301 191.603L216.301 148.301V234.904L141.301 191.603Z" fill="white"/>
<path d="M141.301 191.603L141.301 105L216.301 148.301L141.301 191.603Z" fill="white"/>
<path d="M284.301 189L284.301 275.603L209.301 232.301L284.301 189Z" fill="white"/>
<path d="M284.301 189L359.301 232.301L284.301 275.603L284.301 189Z" fill="white"/>
<path d="M284.301 275.301L359.301 318.603L284.301 361.904L284.301 275.301Z" fill="white"/>
<path d="M284.301 275.301L359.301 232V318.603L284.301 275.301Z" fill="white"/>
<path d="M209.301 318.603L284.301 275.301V361.904L209.301 318.603Z" fill="white"/>
<path d="M209.301 318.603L209.301 232L284.301 275.301L209.301 318.603Z" fill="white"/>
<path d="M427.301 189L427.301 275.603L352.301 232.301L427.301 189Z" fill="white"/>
<path d="M427.301 189L502.301 232.301L427.301 275.603L427.301 189Z" fill="white"/>
<path d="M427.301 275.301L502.301 318.603L427.301 361.904L427.301 275.301Z" fill="white"/>
<path d="M427.301 275.301L502.301 232V318.603L427.301 275.301Z" fill="white"/>
<path d="M352.301 318.603L427.301 275.301V361.904L352.301 318.603Z" fill="white"/>
<path d="M352.301 318.603L352.301 232L427.301 275.301L352.301 318.603Z" fill="white"/>
<path d="M495.301 65L495.301 151.603L420.301 108.301L495.301 65Z" fill="white"/>
<path d="M495.301 65L570.301 108.301L495.301 151.603L495.301 65Z" fill="white"/>
<path d="M495.301 151.301L570.301 194.603L495.301 237.904L495.301 151.301Z" fill="white"/>
<path d="M495.301 151.301L570.301 108V194.603L495.301 151.301Z" fill="white"/>
<path d="M420.301 194.603L495.301 151.301V237.904L420.301 194.603Z" fill="white"/>
<path d="M420.301 194.603L420.301 108L495.301 151.301L420.301 194.603Z" fill="white"/>
<path d="M638.301 65L638.301 151.603L563.301 108.301L638.301 65Z" fill="white"/>
<path d="M638.301 65L713.301 108.301L638.301 151.603L638.301 65Z" fill="white"/>
<path d="M638.301 151.301L713.301 194.603L638.301 237.904L638.301 151.301Z" fill="white"/>
<path d="M638.301 151.301L713.301 108V194.603L638.301 151.301Z" fill="white"/>
<path d="M563.301 194.603L638.301 151.301V237.904L563.301 194.603Z" fill="white"/>
<path d="M563.301 194.603L563.301 108L638.301 151.301L563.301 194.603Z" fill="white"/>
<path d="M706.301 189L706.301 275.603L631.301 232.301L706.301 189Z" fill="white"/>
<path d="M706.301 189L781.301 232.301L706.301 275.603L706.301 189Z" fill="white"/>
<path d="M706.301 275.301L781.301 318.603L706.301 361.904L706.301 275.301Z" fill="white"/>
<path d="M706.301 275.301L781.301 232V318.603L706.301 275.301Z" fill="white"/>
<path d="M631.301 318.603L706.301 275.301V361.904L631.301 318.603Z" fill="white"/>
<path d="M631.301 318.603L631.301 232L706.301 275.301L631.301 318.603Z" fill="white"/>
<path d="M781.301 314L781.301 400.603L706.301 357.301L781.301 314Z" fill="white"/>
<path d="M781.301 314L856.301 357.301L781.301 400.603L781.301 314Z" fill="white"/>
<path d="M781.301 400.301L856.301 443.603L781.301 486.904L781.301 400.301Z" fill="white"/>
<path d="M781.301 400.301L856.301 357V443.603L781.301 400.301Z" fill="white"/>
<path d="M706.301 443.603L781.301 400.301V486.904L706.301 443.603Z" fill="white"/>
<path d="M706.301 443.603L706.301 357L781.301 400.301L706.301 443.603Z" fill="white"/>
<path d="M849.301 189L849.301 275.603L774.301 232.301L849.301 189Z" fill="white"/>
<path d="M849.301 189L924.301 232.301L849.301 275.603L849.301 189Z" fill="white"/>
<path d="M849.301 275.301L924.301 318.603L849.301 361.904L849.301 275.301Z" fill="white"/>
<path d="M849.301 275.301L924.301 232V318.603L849.301 275.301Z" fill="white"/>
<path d="M774.301 318.603L849.301 275.301V361.904L774.301 318.603Z" fill="white"/>
<path d="M774.301 318.603L774.301 232L849.301 275.301L774.301 318.603Z" fill="white"/>
<path d="M992.301 190L992.301 276.603L917.301 233.301L992.301 190Z" fill="white"/>
<path d="M992.301 190L1067.3 233.301L992.301 276.603L992.301 190Z" fill="white"/>
<path d="M992.301 276.301L1067.3 319.603L992.301 362.904L992.301 276.301Z" fill="white"/>
<path d="M992.301 276.301L1067.3 233V319.603L992.301 276.301Z" fill="white"/>
<path d="M917.301 319.603L992.301 276.301V362.904L917.301 319.603Z" fill="white"/>
<path d="M917.301 319.603L917.301 233L992.301 276.301L917.301 319.603Z" fill="white"/>
<path d="M1060.3 66L1060.3 152.603L985.301 109.301L1060.3 66Z" fill="white"/>
<path d="M1060.3 66L1135.3 109.301L1060.3 152.603L1060.3 66Z" fill="white"/>
<path d="M1060.3 152.301L1135.3 195.603L1060.3 238.904L1060.3 152.301Z" fill="white"/>
<path d="M1060.3 152.301L1135.3 109V195.603L1060.3 152.301Z" fill="white"/>
<path d="M985.301 195.603L1060.3 152.301V238.904L985.301 195.603Z" fill="white"/>
<path d="M985.301 195.603L985.301 109L1060.3 152.301L985.301 195.603Z" fill="white"/>
<path d="M1203.3 66L1203.3 152.603L1128.3 109.301L1203.3 66Z" fill="white"/>
<path d="M1203.3 66L1278.3 109.301L1203.3 152.603L1203.3 66Z" fill="white"/>
<path d="M1203.3 152.301L1278.3 195.603L1203.3 238.904L1203.3 152.301Z" fill="white"/>
<path d="M1203.3 152.301L1278.3 109V195.603L1203.3 152.301Z" fill="white"/>
<path d="M1128.3 195.603L1203.3 152.301V238.904L1128.3 195.603Z" fill="white"/>
<path d="M1128.3 195.603L1128.3 109L1203.3 152.301L1128.3 195.603Z" fill="white"/>
<path d="M1278.3 190L1278.3 276.603L1203.3 233.301L1278.3 190Z" fill="white"/>
<path d="M1278.3 190L1353.3 233.301L1278.3 276.603L1278.3 190Z" fill="white"/>
<path d="M1278.3 276.301L1353.3 319.603L1278.3 362.904L1278.3 276.301Z" fill="white"/>
<path d="M1278.3 276.301L1353.3 233V319.603L1278.3 276.301Z" fill="white"/>
<path d="M1203.3 319.603L1278.3 276.301V362.904L1203.3 319.603Z" fill="white"/>
<path d="M1203.3 319.603L1203.3 233L1278.3 276.301L1203.3 319.603Z" fill="white"/>
<path d="M1421.3 190L1421.3 276.603L1346.3 233.301L1421.3 190Z" fill="white"/>
<path d="M1421.3 190L1496.3 233.301L1421.3 276.603L1421.3 190Z" fill="white"/>
<path d="M1421.3 276.301L1496.3 319.603L1421.3 362.904L1421.3 276.301Z" fill="white"/>
<path d="M1421.3 276.301L1496.3 233V319.603L1421.3 276.301Z" fill="white"/>
<path d="M1346.3 319.603L1421.3 276.301V362.904L1346.3 319.603Z" fill="white"/>
<path d="M1346.3 319.603L1346.3 233L1421.3 276.301L1346.3 319.603Z" fill="white"/>
<path d="M1498.3 66L1498.3 152.603L1423.3 109.301L1498.3 66Z" fill="white"/>
<path d="M1498.3 66L1573.3 109.301L1498.3 152.603L1498.3 66Z" fill="white"/>
<path d="M1498.3 152.301L1573.3 195.603L1498.3 238.904L1498.3 152.301Z" fill="white"/>
<path d="M1498.3 152.301L1573.3 109V195.603L1498.3 152.301Z" fill="white"/>
<path d="M1423.3 195.603L1498.3 152.301V238.904L1423.3 195.603Z" fill="white"/>
<path d="M1423.3 195.603L1423.3 109L1498.3 152.301L1423.3 195.603Z" fill="white"/>
<path d="M1566.3 190L1566.3 276.603L1491.3 233.301L1566.3 190Z" fill="white"/>
<path d="M1566.3 190L1641.3 233.301L1566.3 276.603L1566.3 190Z" fill="white"/>
<path d="M1566.3 276.301L1641.3 319.603L1566.3 362.904L1566.3 276.301Z" fill="white"/>
<path d="M1566.3 276.301L1641.3 233V319.603L1566.3 276.301Z" fill="white"/>
<path d="M1491.3 319.603L1566.3 276.301V362.904L1491.3 319.603Z" fill="white"/>
<path d="M1491.3 319.603L1491.3 233L1566.3 276.301L1491.3 319.603Z" fill="white"/>
<path d="M1709.3 190L1709.3 276.603L1634.3 233.301L1709.3 190Z" fill="white"/>
<path d="M1709.3 190L1784.3 233.301L1709.3 276.603L1709.3 190Z" fill="white"/>
<path d="M1709.3 276.301L1784.3 319.603L1709.3 362.904L1709.3 276.301Z" fill="white"/>
<path d="M1709.3 276.301L1784.3 233V319.603L1709.3 276.301Z" fill="white"/>
<path d="M1634.3 319.603L1709.3 276.301V362.904L1634.3 319.603Z" fill="white"/>
<path d="M1634.3 319.603L1634.3 233L1709.3 276.301L1634.3 319.603Z" fill="white"/>
<path d="M1777.3 314L1777.3 400.603L1702.3 357.301L1777.3 314Z" fill="white"/>
<path d="M1777.3 314L1852.3 357.301L1777.3 400.603L1777.3 314Z" fill="white"/>
<path d="M1777.3 400.301L1852.3 443.603L1777.3 486.904L1777.3 400.301Z" fill="white"/>
<path d="M1777.3 400.301L1852.3 357V443.603L1777.3 400.301Z" fill="white"/>
<path d="M1702.3 443.603L1777.3 400.301V486.904L1702.3 443.603Z" fill="white"/>
<path d="M1702.3 443.603L1702.3 357L1777.3 400.301L1702.3 443.603Z" fill="white"/>
<path d="M1852.3 190L1852.3 276.603L1777.3 233.301L1852.3 190Z" fill="white"/>
<path d="M1852.3 190L1927.3 233.301L1852.3 276.603L1852.3 190Z" fill="white"/>
<path d="M1852.3 276.301L1927.3 319.603L1852.3 362.904L1852.3 276.301Z" fill="white"/>
<path d="M1852.3 276.301L1927.3 233V319.603L1852.3 276.301Z" fill="white"/>
<path d="M1777.3 319.603L1852.3 276.301V362.904L1777.3 319.603Z" fill="white"/>
<path d="M1777.3 319.603L1777.3 233L1852.3 276.301L1777.3 319.603Z" fill="white"/>
<rect x="-12" width="1920" height="787" fill="url(#paint0_linear)"/>
<g clip-path="url(#clip0)">
<path d="M804.645 458.139C804.148 456.995 802.98 456.291 801.736 456.386L799.387 456.565C785.02 457.657 772.059 465.711 764.716 478.107L764.517 478.443L781.321 488.397L781.52 488.061C786.659 479.386 793.024 471.524 800.439 464.691L803.944 461.461C804.862 460.616 805.143 459.283 804.645 458.139Z" fill="#00A763"/>
<path d="M724.94 412.464L723.968 410.317C723.453 409.181 722.275 408.495 721.033 408.608C719.79 408.722 718.756 409.609 718.455 410.82L717.307 415.446C714.878 425.231 711.04 434.592 705.902 443.266L705.703 443.602L722.507 453.557L722.706 453.221C730.049 440.825 730.884 425.588 724.94 412.464Z" fill="#A2E786"/>
<path d="M748.942 426.631C749.832 414.145 747.771 401.432 742.983 389.866C742.457 388.595 741.118 387.861 739.764 388.102C738.41 388.342 737.405 389.492 737.349 390.866C736.599 409.234 731.249 427.302 721.88 443.117L717.465 450.57L737.63 462.516L737.83 462.18C744.209 451.41 748.052 439.117 748.942 426.631Z" fill="#00CB75"/>
<path d="M813.63 431.858C813.19 430.555 811.903 429.733 810.536 429.883C798.092 431.241 785.952 435.542 775.429 442.322C764.907 449.102 755.972 458.378 749.592 469.148L749.393 469.484L769.558 481.429L773.973 473.976C783.342 458.16 796.618 444.788 812.365 435.305C813.543 434.595 814.069 433.162 813.63 431.858Z" fill="#007845"/>
<path d="M819.383 398.764C818.808 397.447 817.363 396.742 815.972 397.098L815.434 397.236C797.924 401.718 781.741 409.532 767.335 420.461C767.033 420.69 766.778 420.976 766.585 421.302L741.19 464.171L754.634 472.135L760.247 462.658C774.578 438.466 794.648 417.629 818.285 402.399C819.493 401.621 819.958 400.081 819.383 398.764Z" fill="#00A763"/>
<path d="M772.117 422.464C774.64 404.831 773.679 387.14 769.262 369.884L769.124 369.346C768.768 367.954 767.454 367.026 766.024 367.155C764.593 367.283 763.466 368.431 763.364 369.864C761.365 397.912 752.733 425.525 738.402 449.717L732.589 459.53L754.434 472.47L754.634 472.134C763.712 456.809 769.595 440.097 772.117 422.464Z" fill="#A2E786"/>
<path d="M772.835 416.499L743.512 466L754.434 472.47L754.634 472.134C763.712 456.809 769.595 440.097 772.117 422.464C772.402 420.476 772.639 418.488 772.835 416.499Z" fill="#00CB75"/>
<path d="M782.517 492.511L701.521 444.53C700.129 443.706 699.669 441.909 700.493 440.517C701.318 439.125 703.115 438.665 704.507 439.489L785.503 487.47C786.895 488.294 787.355 490.091 786.53 491.483C785.706 492.875 783.909 493.335 782.517 492.511Z" fill="#AF8663"/>
<path d="M785.503 487.469L745.005 463.479L742.019 468.52L782.517 492.511C783.909 493.335 785.706 492.875 786.53 491.483C787.355 490.091 786.895 488.294 785.503 487.469Z" fill="#896645"/>
</g>
<g clip-path="url(#clip1)">
<path d="M1451.65 339.139C1451.15 337.995 1449.98 337.291 1448.74 337.386L1446.39 337.565C1432.02 338.657 1419.06 346.711 1411.72 359.107L1411.52 359.443L1428.32 369.397L1428.52 369.061C1433.66 360.386 1440.02 352.524 1447.44 345.691L1450.94 342.461C1451.86 341.616 1452.14 340.283 1451.65 339.139Z" fill="#00A763"/>
<path d="M1371.94 293.464L1370.97 291.317C1370.45 290.181 1369.28 289.495 1368.03 289.608C1366.79 289.722 1365.76 290.609 1365.46 291.82L1364.31 296.446C1361.88 306.231 1358.04 315.592 1352.9 324.266L1352.7 324.602L1369.51 334.557L1369.71 334.221C1377.05 321.825 1377.88 306.588 1371.94 293.464Z" fill="#A2E786"/>
<path d="M1395.94 307.631C1396.83 295.145 1394.77 282.432 1389.98 270.866C1389.46 269.595 1388.12 268.861 1386.76 269.102C1385.41 269.342 1384.41 270.492 1384.35 271.866C1383.6 290.234 1378.25 308.302 1368.88 324.117L1364.47 331.57L1384.63 343.516L1384.83 343.18C1391.21 332.41 1395.05 320.117 1395.94 307.631Z" fill="#00CB75"/>
<path d="M1460.63 312.858C1460.19 311.555 1458.9 310.733 1457.54 310.883C1445.09 312.241 1432.95 316.542 1422.43 323.322C1411.91 330.102 1402.97 339.378 1396.59 350.148L1396.39 350.484L1416.56 362.429L1420.97 354.976C1430.34 339.16 1443.62 325.788 1459.37 316.305C1460.54 315.595 1461.07 314.162 1460.63 312.858Z" fill="#007845"/>
<path d="M1466.38 279.764C1465.81 278.447 1464.36 277.742 1462.97 278.098L1462.43 278.236C1444.92 282.718 1428.74 290.532 1414.33 301.461C1414.03 301.69 1413.78 301.976 1413.59 302.302L1388.19 345.171L1401.63 353.135L1407.25 343.658C1421.58 319.466 1441.65 298.629 1465.28 283.399C1466.49 282.621 1466.96 281.081 1466.38 279.764Z" fill="#00A763"/>
<path d="M1419.12 303.464C1421.64 285.831 1420.68 268.14 1416.26 250.884L1416.12 250.346C1415.77 248.954 1414.45 248.026 1413.02 248.155C1411.59 248.283 1410.47 249.431 1410.36 250.864C1408.36 278.912 1399.73 306.525 1385.4 330.717L1379.59 340.53L1401.43 353.47L1401.63 353.134C1410.71 337.809 1416.59 321.097 1419.12 303.464Z" fill="#A2E786"/>
<path d="M1419.84 297.499L1390.51 347L1401.43 353.47L1401.63 353.134C1410.71 337.809 1416.59 321.097 1419.12 303.464C1419.4 301.476 1419.64 299.488 1419.84 297.499Z" fill="#00CB75"/>
<path d="M1429.52 373.511L1348.52 325.53C1347.13 324.706 1346.67 322.909 1347.49 321.517C1348.32 320.125 1350.11 319.665 1351.51 320.489L1432.5 368.47C1433.89 369.294 1434.36 371.091 1433.53 372.483C1432.71 373.875 1430.91 374.335 1429.52 373.511Z" fill="#AF8663"/>
<path d="M1432.5 368.469L1392 344.479L1389.02 349.52L1429.52 373.511C1430.91 374.335 1432.71 373.875 1433.53 372.483C1434.36 371.091 1433.89 369.294 1432.5 368.469Z" fill="#896645"/>
</g>
<g clip-path="url(#clip2)">
<path d="M1343.89 280.494C1342.66 280.342 1341.46 280.99 1340.91 282.11L1339.87 284.225C1333.51 297.155 1333.87 312.41 1340.82 325.032L1341 325.374L1358.11 315.954L1357.93 315.612C1353.06 306.779 1349.52 297.303 1347.4 287.445L1346.4 282.786C1346.14 281.566 1345.13 280.646 1343.89 280.494Z" fill="#00A763"/>
<path d="M1264.07 325.958L1261.73 325.706C1260.49 325.572 1259.3 326.238 1258.76 327.366C1258.23 328.494 1258.47 329.835 1259.36 330.709L1262.76 334.048C1269.96 341.11 1276.07 349.17 1280.93 358.002L1281.12 358.344L1298.23 348.924L1298.04 348.582C1291.09 335.961 1278.39 327.503 1264.07 325.958Z" fill="#A2E786"/>
<path d="M1288.46 312.477C1278.16 305.369 1266.16 300.688 1253.76 298.938C1252.4 298.746 1251.09 299.527 1250.61 300.816C1250.13 302.104 1250.61 303.554 1251.77 304.3C1267.21 314.275 1280.05 328.059 1288.92 344.162L1293.1 351.75L1313.63 340.446L1313.44 340.104C1307.4 329.138 1298.77 319.585 1288.46 312.477Z" fill="#00CB75"/>
<path d="M1325.82 259.408C1324.47 259.125 1323.11 259.816 1322.54 261.069C1317.39 272.479 1314.93 285.121 1315.43 297.629C1315.93 310.137 1319.38 322.544 1325.42 333.51L1325.61 333.852L1346.14 322.548L1341.96 314.96C1333.09 298.856 1328.32 280.629 1328.14 262.247C1328.13 260.872 1327.16 259.691 1325.82 259.408Z" fill="#007845"/>
<path d="M1300.23 237.644C1298.81 237.47 1297.46 238.357 1297.06 239.737L1296.91 240.27C1291.88 257.63 1290.39 275.539 1292.49 293.499C1292.53 293.876 1292.65 294.24 1292.83 294.573L1316.86 338.22L1330.55 330.684L1325.24 321.036C1311.68 296.404 1303.92 268.533 1302.8 240.436C1302.75 239 1301.66 237.818 1300.23 237.644Z" fill="#00A763"/>
<path d="M1296.64 290.397C1282.73 279.269 1267.01 271.112 1249.9 266.153L1249.36 265.998C1247.98 265.598 1246.52 266.258 1245.9 267.556C1245.29 268.854 1245.7 270.408 1246.89 271.224C1270.03 287.19 1289.43 308.649 1303 333.282L1308.5 343.272L1330.74 331.026L1330.55 330.684C1321.96 315.08 1310.55 301.525 1296.64 290.397Z" fill="#A2E786"/>
<path d="M1291.87 286.749L1319.62 337.149L1330.74 331.026L1330.55 330.684C1321.96 315.08 1310.55 301.525 1296.64 290.397C1295.07 289.142 1293.48 287.928 1291.87 286.749Z" fill="#00CB75"/>
<path d="M1362.26 317.013L1279.8 362.418C1278.38 363.198 1276.6 362.682 1275.82 361.265C1275.04 359.847 1275.55 358.066 1276.97 357.285L1359.44 311.88C1360.86 311.1 1362.64 311.616 1363.42 313.034C1364.2 314.451 1363.68 316.233 1362.26 317.013Z" fill="#AF8663"/>
<path d="M1359.44 311.88L1318.21 334.583L1321.03 339.716L1362.26 317.013C1363.68 316.233 1364.2 314.451 1363.42 313.034C1362.64 311.616 1360.86 311.1 1359.44 311.88Z" fill="#896645"/>
</g>
<g clip-path="url(#clip3)">
<path d="M1722.29 251.62L1726.36 255.306L1731.73 254.152C1733.98 253.669 1736.23 254.966 1736.93 257.153L1738.62 262.382L1743.85 264.069C1746.03 264.774 1747.33 267.02 1746.85 269.267L1745.69 274.639L1749.38 278.714C1750.92 280.418 1750.92 283.012 1749.38 284.716L1745.69 288.791L1746.85 294.163C1747.33 296.409 1746.03 298.655 1743.85 299.36L1738.62 301.047L1736.93 306.277C1736.23 308.463 1733.98 309.76 1731.73 309.277L1726.36 308.123L1722.29 311.809C1720.58 313.35 1717.99 313.35 1716.28 311.809L1712.21 308.123L1706.84 309.277C1704.59 309.76 1702.34 308.463 1701.64 306.277L1699.95 301.047L1694.72 299.36C1692.54 298.655 1691.24 296.409 1691.72 294.163L1692.88 288.791L1689.19 284.716C1687.65 283.012 1687.65 280.418 1689.19 278.714L1692.88 274.639L1691.72 269.267C1691.24 267.02 1692.54 264.774 1694.72 264.069L1699.95 262.382L1701.64 257.153C1702.34 254.966 1704.59 253.669 1706.84 254.152L1712.21 255.306L1716.28 251.62C1717.99 250.08 1720.58 250.08 1722.29 251.62Z" fill="#FFB357"/>
<path d="M1719.29 305.355C1732.34 305.355 1742.93 294.771 1742.93 281.715C1742.93 268.659 1732.34 258.075 1719.29 258.075C1706.23 258.075 1695.65 268.659 1695.65 281.715C1695.65 294.771 1706.23 305.355 1719.29 305.355Z" fill="#FCE3A0"/>
<path d="M1708.47 281.715C1708.47 270.902 1715.77 261.761 1725.7 258.959C1723.66 258.383 1721.51 258.075 1719.29 258.075C1706.25 258.075 1695.65 268.68 1695.65 281.715C1695.65 294.75 1706.25 305.355 1719.29 305.355C1721.51 305.355 1723.66 305.046 1725.7 304.47C1715.77 301.668 1708.47 292.528 1708.47 281.715Z" fill="#FFCE71"/>
<path d="M1711.78 280.209C1711.77 282.14 1709.8 283.699 1707.38 283.691C1704.95 283.683 1702.99 282.112 1703 280.182C1703.01 278.251 1704.98 276.692 1707.4 276.7C1709.82 276.708 1711.78 278.279 1711.78 280.209Z" fill="#FF8E9E"/>
<path d="M1726.79 280.256C1726.79 282.187 1728.75 283.758 1731.17 283.766C1733.59 283.773 1735.56 282.214 1735.57 280.284C1735.58 278.354 1733.62 276.782 1731.19 276.775C1728.77 276.767 1726.8 278.326 1726.79 280.256Z" fill="#FF8E9E"/>
<path d="M1684.22 333.798H1683.36C1678.53 333.798 1674.61 337.715 1674.61 342.548L1668.8 347.535H1678.75C1683.58 347.535 1687.5 343.618 1687.5 338.785V337.079C1687.5 335.267 1686.03 333.798 1684.22 333.798Z" fill="#5FD9B3"/>
<path d="M1668.8 317.359V347.535H1674.66C1674.66 346.328 1674.66 318.718 1674.66 317.359H1668.8Z" fill="#00CE8E"/>
<path d="M1679.96 312.189C1683.03 310.974 1684.65 310.495 1686.96 308.179C1691.83 303.308 1690.06 300.053 1686.96 296.953C1683.86 293.853 1680.61 292.081 1675.74 296.953C1673.42 299.268 1672.94 300.883 1671.73 303.956V320.422C1672.94 323.495 1673.42 325.11 1675.74 327.425C1680.61 332.297 1683.86 330.525 1686.96 327.425C1690.06 324.325 1691.83 321.07 1686.96 316.198C1684.65 313.883 1683.03 313.404 1679.96 312.189Z" fill="#FFDBE0"/>
<path d="M1671.73 303.957C1670.51 300.884 1670.03 299.269 1667.72 296.954C1662.85 292.082 1659.59 293.854 1656.49 296.954C1653.39 300.054 1651.62 303.309 1656.49 308.18C1658.81 310.496 1660.42 310.975 1663.49 312.19C1660.42 313.405 1658.81 313.884 1656.49 316.2C1651.62 321.071 1653.39 324.326 1656.49 327.426C1659.59 330.526 1662.85 332.298 1667.72 327.426C1670.03 325.11 1670.51 323.496 1671.73 320.423V303.957Z" fill="#FFB5C0"/>
<path d="M1677.54 318.005C1680.75 314.79 1680.75 309.578 1677.54 306.364C1674.32 303.149 1669.11 303.149 1665.9 306.364C1662.68 309.578 1662.68 314.79 1665.9 318.005C1669.11 321.22 1674.32 321.22 1677.54 318.005Z" fill="#FFCE71"/>
<path d="M1669.16 312.189C1669.16 308.639 1671.41 305.613 1674.56 304.458C1673.68 304.134 1672.72 303.956 1671.73 303.956C1667.18 303.956 1663.49 307.642 1663.49 312.189C1663.49 316.736 1667.18 320.422 1671.73 320.422C1672.72 320.422 1673.68 320.245 1674.56 319.921C1671.41 318.765 1669.16 315.74 1669.16 312.189Z" fill="#FFB357"/>
<path d="M1752 281.715C1752 280.24 1751.46 278.825 1750.47 277.731L1747.28 274.213L1748.28 269.575C1748.37 269.163 1748.41 268.743 1748.41 268.324C1748.41 265.739 1746.76 263.469 1744.3 262.675L1739.78 261.219L1738.33 256.703C1737.53 254.241 1735.26 252.587 1732.68 252.587C1732.26 252.587 1731.84 252.631 1731.43 252.72L1726.79 253.717L1723.27 250.534C1722.17 249.545 1720.76 249 1719.29 249C1717.81 249 1716.4 249.545 1715.3 250.534L1711.78 253.716L1707.14 252.72C1706.73 252.631 1706.31 252.587 1705.89 252.587C1703.31 252.587 1701.04 254.241 1700.24 256.703L1699.51 258.966C1699.27 259.736 1699.69 260.562 1700.46 260.81C1701.23 261.058 1702.05 260.636 1702.3 259.866L1703.03 257.602C1703.44 256.354 1704.58 255.516 1705.89 255.516C1706.11 255.516 1706.32 255.539 1706.53 255.584L1711.9 256.738C1712.36 256.837 1712.84 256.708 1713.19 256.392L1717.27 252.707C1717.82 252.206 1718.54 251.93 1719.29 251.93C1720.03 251.93 1720.75 252.206 1721.3 252.707L1725.38 256.393C1725.73 256.709 1726.21 256.837 1726.67 256.738L1732.04 255.584C1732.25 255.539 1732.46 255.516 1732.68 255.516C1733.98 255.516 1735.13 256.355 1735.54 257.603L1737.22 262.832C1737.37 263.28 1737.72 263.632 1738.17 263.777L1743.4 265.463C1744.65 265.865 1745.48 267.015 1745.48 268.324C1745.48 268.536 1745.46 268.75 1745.42 268.959L1744.26 274.331C1744.16 274.792 1744.29 275.272 1744.61 275.621L1748.29 279.696C1748.79 280.251 1749.07 280.967 1749.07 281.715C1749.07 282.462 1748.79 283.179 1748.29 283.733L1744.61 287.809C1744.29 288.158 1744.16 288.638 1744.26 289.099L1745.42 294.471C1745.46 294.68 1745.48 294.894 1745.48 295.106C1745.48 296.415 1744.65 297.564 1743.4 297.967L1738.17 299.653C1737.72 299.798 1737.37 300.149 1737.22 300.598L1735.54 305.827C1735.13 307.075 1733.98 307.913 1732.68 307.913C1732.46 307.913 1732.25 307.891 1732.04 307.846L1726.67 306.691C1726.21 306.593 1725.73 306.721 1725.38 307.037L1721.3 310.723C1720.75 311.224 1720.03 311.5 1719.28 311.5C1718.54 311.5 1717.82 311.224 1717.27 310.723L1713.19 307.037C1712.84 306.721 1712.36 306.593 1711.9 306.691L1706.53 307.846C1706.32 307.891 1706.11 307.913 1705.89 307.913C1704.59 307.913 1703.44 307.075 1703.03 305.827L1701.35 300.598C1701.2 300.149 1700.85 299.798 1700.4 299.653L1695.17 297.967C1693.92 297.564 1693.09 296.415 1693.09 295.106C1693.09 294.894 1693.11 294.68 1693.15 294.471L1694.31 289.099C1694.41 288.638 1694.28 288.158 1693.96 287.809L1690.28 283.733C1689.78 283.179 1689.5 282.462 1689.5 281.715C1689.5 280.968 1689.78 280.251 1690.28 279.697L1693.96 275.622C1694.28 275.272 1694.41 274.792 1694.31 274.331L1693.15 268.959C1693.11 268.75 1693.09 268.537 1693.09 268.324C1693.09 267.016 1693.92 265.866 1695.17 265.463L1697.79 264.619C1698.56 264.371 1698.98 263.545 1698.74 262.775C1698.49 262.005 1697.66 261.582 1696.89 261.83L1694.27 262.675C1691.81 263.469 1690.16 265.739 1690.16 268.324C1690.16 268.743 1690.2 269.164 1690.29 269.575L1691.29 274.213L1688.1 277.732C1687.12 278.826 1686.57 280.241 1686.57 281.716C1686.57 283.191 1687.12 284.605 1688.1 285.699L1691.29 289.218L1690.29 293.856C1690.2 294.267 1690.16 294.688 1690.16 295.106C1690.16 297.691 1691.81 299.962 1694.27 300.756L1698.79 302.212L1700.25 306.727C1701.04 309.189 1703.31 310.844 1705.89 310.844C1706.31 310.844 1706.73 310.799 1707.14 310.711L1711.78 309.714L1715.3 312.896C1716.4 313.886 1717.81 314.43 1719.29 314.43C1720.76 314.43 1722.17 313.886 1723.27 312.896L1726.79 309.714L1731.43 310.711C1731.84 310.799 1732.26 310.844 1732.68 310.844C1735.26 310.844 1737.53 309.189 1738.33 306.727L1739.78 302.212L1744.3 300.756C1746.76 299.962 1748.41 297.691 1748.41 295.106C1748.41 294.687 1748.37 294.267 1748.28 293.856L1747.28 289.218L1750.47 285.699C1751.46 284.604 1752 283.19 1752 281.715Z" fill="black"/>
<path d="M1708.74 277.816C1709.55 277.816 1710.2 277.16 1710.2 276.351V274.398C1710.2 273.589 1709.55 272.933 1708.74 272.933C1707.93 272.933 1707.27 273.589 1707.27 274.398V276.351C1707.27 277.16 1707.93 277.816 1708.74 277.816Z" fill="black"/>
<path d="M1729.83 277.816C1730.64 277.816 1731.3 277.16 1731.3 276.351V274.398C1731.3 273.589 1730.64 272.933 1729.83 272.933C1729.02 272.933 1728.37 273.589 1728.37 274.398V276.351C1728.37 277.16 1729.02 277.816 1729.83 277.816Z" fill="black"/>
<path d="M1719.38 281.332C1721.27 281.332 1723.02 280.238 1723.83 278.545C1724.18 277.816 1723.87 276.941 1723.14 276.592C1722.41 276.243 1721.54 276.552 1721.19 277.282C1720.86 277.962 1720.15 278.402 1719.38 278.402C1718.61 278.402 1717.9 277.962 1717.58 277.282C1717.23 276.552 1716.36 276.243 1715.63 276.592C1714.9 276.941 1714.59 277.816 1714.94 278.545C1715.75 280.238 1717.49 281.332 1719.38 281.332Z" fill="black"/>
<path d="M1691.45 302.492C1691.45 299.726 1689.61 297.525 1688 295.917C1686.39 294.309 1684.19 292.462 1681.42 292.462C1679.22 292.462 1677.02 293.592 1674.7 295.917C1673.2 297.417 1672.39 298.672 1671.73 300.085C1671.06 298.672 1670.25 297.417 1668.75 295.917C1666.43 293.592 1664.23 292.462 1662.03 292.462C1659.26 292.462 1657.06 294.308 1655.45 295.917C1653.85 297.525 1652 299.726 1652 302.492C1652 304.692 1653.13 306.891 1655.45 309.215C1656.95 310.715 1658.21 311.525 1659.62 312.189C1658.21 312.853 1656.95 313.663 1655.45 315.163C1653.13 317.487 1652 319.687 1652 321.886C1652 324.652 1653.85 326.853 1655.45 328.461C1657.06 330.069 1659.26 331.916 1662.03 331.916C1663.78 331.916 1665.52 331.2 1667.33 329.743V347.535C1667.33 348.344 1667.99 349 1668.8 349C1669.61 349 1670.26 348.344 1670.26 347.535V326.743C1670.88 325.926 1671.33 325.136 1671.73 324.29C1672.12 325.137 1672.57 325.926 1673.19 326.743V347.534C1673.19 347.583 1673.19 347.631 1673.2 347.68C1673.27 348.419 1673.91 349 1674.66 349H1678.75C1684.38 349 1688.96 344.418 1688.96 338.785V337.079C1688.96 334.462 1686.83 332.333 1684.22 332.333H1683.36C1680.53 332.333 1677.97 333.485 1676.12 335.345V329.743C1677.93 331.2 1679.68 331.916 1681.42 331.916C1684.19 331.916 1686.39 330.07 1688 328.461C1689.33 327.133 1690.91 325.324 1691.34 323.096C1691.49 322.301 1690.97 321.533 1690.18 321.379C1689.38 321.226 1688.61 321.745 1688.46 322.539C1688.24 323.669 1687.46 324.856 1685.93 326.389C1684.11 328.209 1682.76 328.986 1681.42 328.986C1680.04 328.986 1678.52 328.137 1676.77 326.389C1675.15 324.772 1674.54 323.545 1673.79 321.664C1677.48 320.86 1680.4 317.946 1681.2 314.25C1683.13 315.02 1684.3 315.604 1685.93 317.234C1686.31 317.621 1686.66 318.004 1686.96 318.373C1687.47 319 1688.4 319.095 1689.02 318.584C1689.65 318.073 1689.74 317.15 1689.23 316.523C1688.87 316.077 1688.46 315.62 1688 315.163C1686.5 313.663 1685.24 312.853 1683.83 312.189C1685.24 311.526 1686.5 310.716 1688 309.215C1690.32 306.891 1691.45 304.692 1691.45 302.492ZM1657.53 307.144C1655.78 305.397 1654.93 303.875 1654.93 302.492C1654.93 301.155 1655.71 299.808 1657.53 297.989C1659.35 296.169 1660.69 295.392 1662.03 295.392C1663.41 295.392 1664.93 296.242 1666.68 297.989C1668.31 299.619 1668.9 300.785 1669.67 302.714C1665.97 303.517 1663.05 306.432 1662.25 310.128C1660.32 309.358 1659.16 308.774 1657.53 307.144ZM1662.03 328.986C1660.69 328.986 1659.35 328.209 1657.53 326.389C1655.71 324.57 1654.93 323.223 1654.93 321.886C1654.93 320.503 1655.78 318.981 1657.53 317.234C1659.16 315.604 1660.32 315.02 1662.25 314.25C1663.05 317.946 1665.97 320.86 1669.66 321.664C1668.91 323.544 1668.3 324.772 1666.68 326.389C1664.93 328.137 1663.41 328.986 1662.03 328.986ZM1683.36 335.263H1684.22C1685.22 335.263 1686.03 336.077 1686.03 337.079V338.785C1686.03 342.802 1682.77 346.07 1678.75 346.07H1678.19L1682.32 341.938C1682.9 341.366 1682.9 340.439 1682.32 339.867C1681.75 339.295 1680.83 339.295 1680.25 339.867L1676.12 343.998V341.702C1676.54 338.082 1679.63 335.263 1683.36 335.263ZM1671.73 318.957C1667.99 318.957 1664.96 315.921 1664.96 312.189C1664.96 308.457 1667.99 305.421 1671.73 305.421C1675.46 305.421 1678.49 308.457 1678.49 312.189C1678.49 315.921 1675.46 318.957 1671.73 318.957ZM1681.2 310.128C1680.4 306.432 1677.48 303.517 1673.79 302.714C1674.56 300.786 1675.14 299.619 1676.77 297.989C1678.52 296.242 1680.04 295.392 1681.42 295.392C1682.76 295.392 1684.11 296.169 1685.93 297.989C1687.75 299.808 1688.52 301.155 1688.52 302.492C1688.52 303.875 1687.67 305.397 1685.93 307.144C1684.3 308.774 1683.13 309.358 1681.2 310.128Z" fill="black"/>
<path d="M1719.29 306.82C1733.13 306.82 1744.39 295.558 1744.39 281.715C1744.39 267.872 1733.13 256.61 1719.29 256.61C1705.44 256.61 1694.18 267.872 1694.18 281.715C1694.18 295.558 1705.44 306.82 1719.29 306.82ZM1719.29 259.54C1731.51 259.54 1741.46 269.488 1741.46 281.715C1741.46 293.942 1731.51 303.89 1719.29 303.89C1707.06 303.89 1697.11 293.942 1697.11 281.715C1697.11 269.488 1707.06 259.54 1719.29 259.54Z" fill="black"/>
</g>
<g clip-path="url(#clip4)">
<path d="M182.071 132.22C185.077 132.22 188.19 131.904 191.325 131.282C192.884 130.973 196.185 130.116 199.48 129.077C205.838 127.072 206.846 126.069 207.33 125.587C208.241 124.679 208.454 123.283 207.854 122.144C207.478 121.431 207.15 120.77 206.832 120.13C206.142 118.742 205.49 117.431 204.486 115.823C202.695 112.951 200.993 110.832 198.612 108.51C195.669 105.638 192.838 103.072 187.985 100.741C183.424 98.5498 177.878 97.2932 172.765 97.2932C164.771 97.2932 158.488 100.292 155.525 105.518C152.68 110.538 153.817 116.379 158.903 122.878C161.988 126.82 168.266 129.896 172.794 131.086C175.655 131.838 178.777 132.219 182.07 132.22H182.071Z" fill="#E7F0EF"/>
<path d="M218.417 122.941C218.571 122.941 218.729 122.929 218.885 122.903C221.365 122.502 226.226 119.033 226.272 119C228.452 117.394 230.138 115.698 231.736 113.501C235.038 108.962 235.833 102.824 233.669 98.575C232.236 95.7621 229.694 94.1484 226.693 94.1484C224.67 94.1484 222.53 94.8786 220.328 96.3175C216.453 98.8512 214.011 103.343 213.451 108.965C212.982 113.678 213.946 118.525 215.964 121.614C216.511 122.45 217.438 122.941 218.417 122.941Z" fill="#C5E1E6"/>
<path d="M251.713 148.599C247.172 137.637 236.74 130.45 224.95 130.059C221.969 137.67 222.401 148.169 226.207 158.081C230.358 168.89 238.013 177.502 245.928 180.587C253.689 172.237 256.353 159.801 251.713 148.599Z" fill="#FF641A"/>
<path d="M220.737 160.182C216.766 149.843 216.054 139.156 218.602 130.522C216.506 130.902 214.45 131.507 212.45 132.336C207.757 134.278 202.379 138.452 197.177 144.063C197.028 151.544 198.49 159.473 201.476 167.252C204.97 176.346 210.258 184.304 216.486 190.018C217.783 190.072 219.051 190.104 220.268 190.104C226.749 190.104 231.856 189.35 235.449 187.861C237.462 187.028 239.334 185.997 241.057 184.805C232.629 180.441 225.062 171.443 220.737 160.182Z" fill="#FF9F00"/>
<path d="M191.576 150.766C191.094 151.405 190.617 152.053 190.144 152.712C183.124 162.517 178.931 172.19 178.931 178.589C178.931 181.401 181.845 182.981 184.382 184.044C186.813 185.062 190.189 186.081 194.146 186.991C198.472 187.986 203.134 188.775 207.711 189.31C202.927 183.686 198.891 176.862 196.007 169.352C193.638 163.182 192.149 156.903 191.576 150.766Z" fill="#FF9F00"/>
<path d="M220.737 160.182C216.766 149.843 216.054 139.156 218.602 130.522C216.506 130.902 214.45 131.507 212.45 132.336C211.082 132.902 209.656 133.659 208.193 134.585V180.257C210.672 183.953 213.468 187.25 216.486 190.019C217.783 190.073 219.05 190.104 220.268 190.104C226.749 190.104 231.856 189.35 235.449 187.862C237.462 187.028 239.334 185.998 241.057 184.806C232.629 180.441 225.062 171.443 220.737 160.182Z" fill="#FF641A"/>
</g>
<g clip-path="url(#clip5)">
<path d="M1098.8 88.8942V95.5149H1022.66V88.8942H1069L1078.94 78.9631L1083.9 83.9287L1078.94 88.8942H1098.8Z" fill="#502601"/>
<path d="M1098.8 72.3425L1100.25 73.7974C1102.5 76.0456 1103.76 79.0944 1103.76 82.2736C1103.76 85.4528 1102.5 88.5016 1100.25 90.7498L1098.8 92.2047L1097.34 90.7498C1095.09 88.5016 1093.83 85.4528 1093.83 82.2736C1093.83 79.0944 1095.09 76.0456 1097.34 73.7974L1098.8 72.3425Z" fill="#008100"/>
<path d="M1118.66 92.2046L1117.2 93.6595C1114.96 95.9072 1111.91 97.1701 1108.73 97.1701C1105.55 97.1701 1102.5 95.9072 1100.25 93.6595L1098.8 92.2046L1100.25 90.7497C1102.5 88.5019 1105.55 87.239 1108.73 87.239C1111.91 87.239 1114.96 88.5019 1117.2 90.7497L1118.66 92.2046Z" fill="#33BC00"/>
<path d="M1054.11 95.5149H1060.73V105.446H1054.11V95.5149Z" fill="#763A02"/>
<path d="M1037.56 112.067H1078.94C1081.68 112.067 1083.9 114.29 1083.9 117.032C1083.9 119.775 1081.68 121.998 1078.94 121.998H1037.56C1034.81 121.998 1032.59 119.775 1032.59 117.032C1032.59 114.29 1034.81 112.067 1037.56 112.067Z" fill="#FF8800"/>
<path d="M1030.93 121.998H1085.56C1088.3 121.998 1090.52 124.221 1090.52 126.963C1090.52 129.706 1088.3 131.929 1085.56 131.929H1030.93C1028.19 131.929 1025.97 129.706 1025.97 126.963C1025.97 124.221 1028.19 121.998 1030.93 121.998Z" fill="#FFA900"/>
<path d="M1037.56 151.791H1078.94C1081.68 151.791 1083.9 154.014 1083.9 156.757C1083.9 159.499 1081.68 161.722 1078.94 161.722H1037.56C1034.81 161.722 1032.59 159.499 1032.59 156.757C1032.59 154.014 1034.81 151.791 1037.56 151.791Z" fill="#FF8800"/>
<path d="M1030.93 141.86H1085.56C1088.3 141.86 1090.52 144.083 1090.52 146.826C1090.52 149.568 1088.3 151.791 1085.56 151.791H1030.93C1028.19 151.791 1025.97 149.568 1025.97 146.826C1025.97 144.083 1028.19 141.86 1030.93 141.86Z" fill="#FFA900"/>
<path d="M1027.62 131.929H1088.87C1091.61 131.929 1093.83 134.152 1093.83 136.894C1093.83 139.637 1091.61 141.86 1088.87 141.86H1027.62C1024.88 141.86 1022.66 139.637 1022.66 136.894C1022.66 134.152 1024.88 131.929 1027.62 131.929Z" fill="#FEBD33"/>
<path d="M1045.83 105.446H1070.66C1072.49 105.446 1073.97 106.928 1073.97 108.756C1073.97 110.585 1072.49 112.067 1070.66 112.067H1045.83C1044 112.067 1042.52 110.585 1042.52 108.756C1042.52 106.928 1044 105.446 1045.83 105.446Z" fill="#E47700"/>
<path d="M1045.83 161.722H1070.66C1072.49 161.722 1073.97 163.204 1073.97 165.033C1073.97 166.861 1072.49 168.343 1070.66 168.343H1045.83C1044 168.343 1042.52 166.861 1042.52 165.033C1042.52 163.204 1044 161.722 1045.83 161.722Z" fill="#E47700"/>
<path d="M1050.8 151.791H1064.04V145.171C1064.04 141.514 1061.07 138.55 1057.42 138.55C1053.76 138.55 1050.8 141.514 1050.8 145.171V151.791Z" fill="#763A02"/>
<path d="M1105.42 107.101C1103.59 105.273 1100.63 105.273 1098.8 107.101C1096.97 108.93 1096.97 111.894 1098.8 113.722L1100.45 115.377L1107.07 108.756L1105.42 107.101Z" fill="#763A02"/>
<path d="M1100.45 115.38L1107.07 108.76L1112.87 114.553L1106.25 121.174L1100.45 115.38Z" fill="#FEBD33"/>
<path d="M1113.69 115.377L1112.87 114.55L1106.25 121.17L1107.07 121.998C1108.9 123.826 1111.87 123.826 1113.69 121.998C1115.52 120.17 1115.52 117.205 1113.69 115.377Z" fill="#763A02"/>
<path d="M1103.76 112.067L1109.41 106.416C1110.03 105.795 1110.88 105.446 1111.75 105.446H1112.04C1113.87 105.446 1115.35 106.928 1115.35 108.756C1115.35 110.585 1113.87 112.067 1112.04 112.067H1103.76Z" fill="#81D1FE"/>
<path d="M1103.76 112.067L1098.11 117.718C1097.49 118.338 1097.14 119.18 1097.14 120.058V120.343C1097.14 122.171 1098.62 123.653 1100.45 123.653C1102.28 123.653 1103.76 122.171 1103.76 120.343V112.067Z" fill="#08B7FC"/>
<path d="M1118.37 89.5784C1115.82 87.0117 1112.35 85.5729 1108.73 85.5828C1107.42 85.5828 1106.12 85.7707 1104.86 86.1406C1105.23 84.8846 1105.42 83.5819 1105.42 82.2725C1105.43 78.6524 1103.99 75.1788 1101.42 72.6261L1098.8 70.001L1096.17 72.6261C1092.32 76.4446 1091.12 82.203 1093.15 87.238H1082.93L1086.24 83.9277L1078.93 76.6217L1068.32 87.238H1021V97.1691H1052.45V103.79H1045.83C1043.09 103.79 1040.87 106.013 1040.87 108.755C1040.87 109.321 1040.97 109.88 1041.17 110.411H1037.56C1033.9 110.411 1030.93 113.375 1030.93 117.031C1030.94 118.197 1031.26 119.34 1031.85 120.342H1030.93C1027.28 120.343 1024.32 123.309 1024.32 126.965C1024.32 128.285 1024.71 129.574 1025.45 130.668C1022.01 131.845 1020.18 135.585 1021.36 139.023C1022.01 140.948 1023.53 142.46 1025.45 143.119C1023.4 146.149 1024.2 150.264 1027.23 152.311C1028.32 153.05 1029.61 153.445 1030.93 153.445H1031.85C1031.26 154.447 1030.94 155.59 1030.93 156.756C1030.93 160.412 1033.9 163.376 1037.56 163.376H1041.17C1040.97 163.906 1040.87 164.466 1040.87 165.031C1040.87 167.774 1043.09 169.997 1045.83 169.997H1070.66C1073.4 169.997 1075.62 167.774 1075.62 165.031C1075.62 164.466 1075.52 163.906 1075.32 163.376H1078.93C1082.59 163.376 1085.56 160.412 1085.56 156.756C1085.55 155.59 1085.23 154.447 1084.64 153.445H1085.56C1089.21 153.444 1092.17 150.478 1092.17 146.822C1092.17 145.502 1091.78 144.212 1091.04 143.119C1094.48 141.942 1096.31 138.202 1095.13 134.764C1094.48 132.839 1092.96 131.327 1091.04 130.668C1093.09 127.638 1092.29 123.523 1089.26 121.476C1088.17 120.737 1086.88 120.342 1085.56 120.342H1084.64C1085.23 119.34 1085.55 118.197 1085.56 117.031C1085.56 113.375 1082.59 110.411 1078.93 110.411H1075.32C1075.52 109.88 1075.62 109.321 1075.62 108.755C1075.62 106.013 1073.4 103.79 1070.66 103.79H1062.38V97.1691H1100.45V96.0105C1105.88 100.171 1113.54 99.6647 1118.37 94.827L1121 92.2036L1118.37 89.5784ZM1098.51 74.9665L1098.8 74.6818L1099.08 74.9665C1103.12 79.0016 1103.12 85.5433 1099.08 89.5784L1098.8 89.8631L1098.51 89.5784C1098.03 89.09 1097.59 88.5543 1097.21 87.9795C1094.49 83.8846 1095.04 78.4426 1098.51 74.9682L1098.51 74.9665ZM1027.62 146.825C1027.62 144.996 1029.11 143.514 1030.93 143.514H1049.31C1049.29 143.574 1049.31 143.635 1049.29 143.695C1049.19 144.181 1049.14 144.674 1049.14 145.169V150.135H1030.93C1029.11 150.135 1027.62 148.653 1027.62 146.825ZM1061.69 142.687C1062.14 143.437 1062.38 144.295 1062.38 145.169V150.135H1052.45V145.169C1052.44 142.438 1054.64 140.212 1057.37 140.198C1059.15 140.189 1060.8 141.14 1061.69 142.687ZM1072.31 165.031C1072.31 165.946 1071.57 166.687 1070.66 166.687H1045.83C1044.92 166.687 1044.18 165.946 1044.18 165.031C1044.18 164.117 1044.92 163.376 1045.83 163.376H1070.66C1071.57 163.376 1072.31 164.117 1072.31 165.031ZM1082.25 156.756C1082.25 158.584 1080.76 160.066 1078.93 160.066H1037.56C1035.73 160.066 1034.24 158.584 1034.24 156.756C1034.24 154.927 1035.73 153.445 1037.56 153.445H1078.93C1080.76 153.445 1082.25 154.927 1082.25 156.756ZM1085.56 150.135H1065.69V145.169C1065.69 144.674 1065.64 144.18 1065.54 143.695C1065.53 143.635 1065.54 143.574 1065.52 143.514H1085.56C1087.38 143.514 1088.87 144.996 1088.87 146.825C1088.87 148.653 1087.38 150.135 1085.56 150.135ZM1092.18 136.893C1092.18 138.722 1090.69 140.204 1088.87 140.204H1064C1063.99 140.187 1063.98 140.172 1063.96 140.154C1063.9 140.078 1063.84 140.01 1063.78 139.936C1063.61 139.744 1063.46 139.555 1063.28 139.378C1063.19 139.29 1063.1 139.212 1063.01 139.128C1062.85 138.979 1062.68 138.832 1062.52 138.696C1062.41 138.613 1062.31 138.53 1062.2 138.461C1062.04 138.338 1061.86 138.223 1061.68 138.113C1061.57 138.042 1061.45 137.976 1061.33 137.911C1061.15 137.812 1060.97 137.721 1060.78 137.637C1060.65 137.58 1060.53 137.526 1060.41 137.471C1060.21 137.393 1060.01 137.327 1059.81 137.266C1059.69 137.228 1059.57 137.186 1059.44 137.153C1059.22 137.095 1058.99 137.054 1058.76 137.016C1058.66 136.998 1058.55 136.971 1058.43 136.956C1057.75 136.864 1057.06 136.864 1056.38 136.956C1056.27 136.971 1056.16 136.996 1056.05 137.016C1055.82 137.054 1055.6 137.095 1055.37 137.153C1055.25 137.186 1055.13 137.228 1055 137.266C1054.8 137.329 1054.6 137.393 1054.41 137.471C1054.28 137.521 1054.16 137.575 1054.04 137.637C1053.85 137.723 1053.67 137.812 1053.48 137.911C1053.37 137.976 1053.25 138.044 1053.13 138.113C1052.96 138.223 1052.78 138.338 1052.61 138.461C1052.51 138.537 1052.4 138.613 1052.3 138.696C1052.13 138.832 1051.97 138.979 1051.8 139.128C1051.71 139.211 1051.62 139.293 1051.53 139.378C1051.37 139.555 1051.2 139.744 1051.04 139.936C1050.98 140.01 1050.91 140.078 1050.85 140.154C1050.84 140.171 1050.82 140.186 1050.81 140.204H1027.62C1025.8 140.204 1024.31 138.722 1024.31 136.893C1024.31 135.065 1025.8 133.583 1027.62 133.583H1088.87C1090.69 133.583 1092.18 135.065 1092.18 136.893ZM1088.87 126.962C1088.87 128.791 1087.38 130.273 1085.56 130.273H1030.93C1029.11 130.273 1027.62 128.791 1027.62 126.962C1027.62 125.134 1029.11 123.652 1030.93 123.652H1085.56C1087.38 123.652 1088.87 125.134 1088.87 126.962ZM1082.25 117.031C1082.25 118.86 1080.76 120.342 1078.93 120.342H1037.56C1035.73 120.342 1034.24 118.86 1034.24 117.031C1034.24 115.203 1035.73 113.721 1037.56 113.721H1078.93C1080.76 113.721 1082.25 115.203 1082.25 117.031ZM1070.66 107.1C1071.57 107.1 1072.31 107.841 1072.31 108.755C1072.31 109.669 1071.57 110.411 1070.66 110.411H1045.83C1044.92 110.411 1044.18 109.669 1044.18 108.755C1044.18 107.841 1044.92 107.1 1045.83 107.1H1070.66ZM1059.07 103.79H1055.76V97.1691H1059.07V103.79ZM1097.14 93.8587H1024.31V90.5484H1069.69L1078.93 81.3025L1081.56 83.9277L1074.94 90.5484H1094.98C1095.01 90.5964 1095.05 90.6345 1095.09 90.6808C1095.43 91.1149 1095.79 91.5285 1096.17 91.9189L1096.45 92.2036L1097.14 92.8888L1097.14 93.8587ZM1116.03 92.4883C1112 96.5226 1105.46 96.5226 1101.42 92.4883L1101.14 92.2036L1101.42 91.9189C1105.46 87.8846 1112 87.8846 1116.03 91.9189L1116.32 92.2036L1116.03 92.4883Z" fill="black"/>
<path d="M1114.86 114.207L1113.98 113.325C1116.5 112.25 1117.68 109.333 1116.6 106.81C1115.82 104.98 1114.03 103.792 1112.04 103.791H1111.75C1110.44 103.788 1109.17 104.312 1108.24 105.246L1107.07 106.416L1106.59 105.931C1104.98 104.333 1102.64 103.72 1100.45 104.325V100.48H1097.14V105.446H1092.18V108.756H1096.02C1095.42 110.942 1096.03 113.284 1097.63 114.892L1098.11 115.377L1096.94 116.547C1096.01 117.476 1095.48 118.74 1095.49 120.058V120.343C1095.49 123.085 1097.71 125.307 1100.46 125.305C1102.44 125.304 1104.24 124.116 1105.02 122.286L1105.9 123.168C1107.92 125.195 1111.05 125.603 1113.52 124.161L1115.83 126.478L1118.17 124.138L1115.86 121.821C1117.28 119.349 1116.87 116.231 1114.86 114.207ZM1111.75 107.101H1112.04C1112.95 107.101 1113.69 107.842 1113.69 108.756C1113.69 109.67 1112.95 110.412 1112.04 110.412H1107.76L1108.24 109.927L1110.58 107.586C1110.9 107.277 1111.32 107.102 1111.75 107.101ZM1104.25 108.271L1104.73 108.756L1102.59 110.895L1100.45 113.037L1099.97 112.552C1098.79 111.369 1098.79 109.456 1099.97 108.273C1101.15 107.095 1103.06 107.095 1104.25 108.273L1104.25 108.271ZM1102.11 120.343C1102.11 121.257 1101.37 121.998 1100.45 121.998C1099.54 121.998 1098.8 121.257 1098.8 120.343V120.058C1098.8 119.619 1098.97 119.199 1099.28 118.888L1101.62 116.547L1102.11 116.062V120.343ZM1105.42 118.002V113.722H1109.7L1110.53 114.55L1106.25 118.83L1105.42 118.002ZM1108.62 121.135L1112.83 116.925C1113.81 118.27 1113.52 120.156 1112.17 121.135C1111.11 121.905 1109.68 121.905 1108.62 121.135Z" fill="black"/>
</g>
<g clip-path="url(#clip6)">
<path d="M1135.11 160.374C1128.54 175.987 1135.88 193.965 1151.49 200.529C1167.11 207.093 1185.08 199.757 1191.65 184.144C1198.21 168.531 1190.88 150.553 1175.26 143.989C1159.65 137.425 1141.67 144.761 1135.11 160.374Z" fill="#EAEAEA"/>
<path d="M1173.09 183.572C1171.52 187.306 1173.27 191.605 1177 193.174C1180.74 194.744 1185.04 192.99 1186.61 189.256C1188.18 185.523 1186.42 181.224 1182.69 179.654C1178.95 178.084 1174.66 179.838 1173.09 183.572Z" fill="#BF7E68"/>
<path d="M1171.86 183.055C1173.71 178.65 1178.8 176.573 1183.2 178.425C1187.61 180.277 1189.69 185.368 1187.84 189.773C1185.98 194.178 1180.89 196.255 1176.49 194.403C1172.08 192.551 1170 187.46 1171.86 183.055ZM1185.38 188.739C1186.66 185.689 1185.22 182.165 1182.17 180.883C1179.12 179.601 1175.6 181.039 1174.31 184.089C1173.03 187.139 1174.47 190.663 1177.52 191.945C1180.57 193.227 1184.09 191.789 1185.38 188.739Z" fill="#4C241D"/>
<path d="M1166.13 173.147C1168.63 179.282 1172.9 183.343 1175.66 182.216C1178.42 181.09 1178.63 175.203 1176.13 169.068C1173.62 162.933 1169.36 158.872 1166.6 159.998C1163.84 161.125 1163.63 167.011 1166.13 173.147Z" fill="white"/>
<path d="M1163.71 161.294C1164.23 160.066 1165.03 159.202 1166.09 158.771C1169.64 157.321 1174.49 161.535 1177.36 168.573C1180.23 175.611 1179.72 182.012 1176.16 183.461C1172.61 184.91 1167.76 180.697 1164.89 173.659C1163.61 170.52 1162.96 167.323 1163.05 164.654C1163.1 163.349 1163.32 162.218 1163.71 161.294ZM1176.08 179.904C1176.34 179.292 1176.5 178.465 1176.53 177.483C1176.62 175.184 1176.03 172.378 1174.89 169.58C1173.75 166.784 1172.2 164.37 1170.54 162.784C1169.18 161.492 1167.89 160.915 1167.1 161.24C1166.3 161.564 1165.79 162.877 1165.72 164.749C1165.64 167.048 1166.22 169.854 1167.36 172.652C1169.86 178.771 1173.58 181.633 1175.16 180.992C1175.53 180.838 1175.85 180.459 1176.08 179.904Z" fill="#4C241D"/>
<path d="M1151.75 195.303C1152.88 198.063 1158.76 198.271 1164.9 195.768C1171.03 193.265 1175.09 188.998 1173.97 186.237C1172.84 183.477 1166.96 183.269 1160.82 185.772C1154.68 188.276 1150.62 192.543 1151.75 195.303Z" fill="white"/>
<path d="M1150.65 192.357C1151.04 191.432 1151.69 190.48 1152.59 189.534C1154.43 187.6 1157.18 185.83 1160.32 184.549C1167.35 181.677 1173.75 182.191 1175.2 185.745C1176.65 189.298 1172.44 194.143 1165.4 197.014C1158.36 199.886 1151.96 199.372 1150.51 195.819C1150.08 194.763 1150.14 193.585 1150.65 192.357ZM1172.61 188.176C1172.84 187.621 1172.89 187.13 1172.73 186.752C1172.09 185.18 1167.44 184.521 1161.32 187.018C1158.52 188.16 1156.11 189.706 1154.53 191.372C1153.23 192.73 1152.66 194.016 1152.98 194.811C1153.31 195.607 1154.62 196.123 1156.49 196.189C1158.79 196.27 1161.6 195.686 1164.39 194.545C1167.19 193.404 1169.6 191.858 1171.19 190.191C1171.87 189.48 1172.35 188.788 1172.61 188.176Z" fill="#4C241D"/>
<path d="M1183.83 192.426C1183.93 192.191 1184.09 191.983 1184.32 191.832C1184.93 191.425 1185.76 191.593 1186.17 192.208L1188.82 196.216C1189.23 196.828 1189.06 197.655 1188.45 198.064C1187.83 198.471 1187 198.302 1186.6 197.688L1183.94 193.68C1183.69 193.294 1183.66 192.823 1183.83 192.426Z" fill="#4C241D"/>
<path d="M1154.65 175.821C1152.65 180.573 1156.26 186.623 1162.71 189.334C1169.16 192.045 1176 190.391 1178 185.639C1180 180.887 1176.39 174.837 1169.94 172.126C1163.49 169.415 1156.65 171.069 1154.65 175.821Z" fill="#BF7E68"/>
<path d="M1153.42 175.304C1155.7 169.882 1163.34 167.905 1170.46 170.897C1177.58 173.889 1181.51 180.734 1179.23 186.156C1176.95 191.578 1169.31 193.555 1162.19 190.563C1155.08 187.571 1151.14 180.726 1153.42 175.304ZM1176.77 185.122C1178.48 181.056 1175.19 175.777 1169.43 173.355C1163.66 170.933 1157.59 172.271 1155.88 176.338C1154.17 180.404 1157.46 185.683 1163.22 188.105C1168.99 190.527 1175.06 189.189 1176.77 185.122Z" fill="#4C241D"/>
<path d="M1186.93 185.053C1187.09 184.656 1187.45 184.347 1187.9 184.259L1192.62 183.351C1193.35 183.212 1194.05 183.685 1194.19 184.409C1194.33 185.133 1193.85 185.832 1193.13 185.97L1188.41 186.878C1187.68 187.018 1186.99 186.544 1186.85 185.821C1186.8 185.552 1186.83 185.287 1186.93 185.053Z" fill="#4C241D"/>
<path d="M1169.31 171.888C1167.05 171.037 1164.76 170.71 1162.66 170.865C1161.88 173.234 1160.99 175.638 1159.97 178.06C1158.96 180.482 1157.86 182.799 1156.71 185.013C1158.07 186.619 1159.9 188.026 1162.1 189.049C1163.52 186.408 1164.88 183.599 1166.12 180.644C1167.36 177.688 1168.42 174.756 1169.31 171.888Z" fill="#FFCE56"/>
<path d="M1155.48 184.497C1155.5 184.465 1155.51 184.433 1155.53 184.401C1157.88 179.861 1159.8 175.304 1161.4 170.448C1161.57 169.918 1162.03 169.575 1162.56 169.535C1164.9 169.363 1167.39 169.745 1169.78 170.64C1170.44 170.886 1170.79 171.607 1170.58 172.282C1168.74 178.243 1166.24 184.195 1163.27 189.684C1162.93 190.305 1162.17 190.557 1161.53 190.257C1159.22 189.178 1157.2 187.663 1155.69 185.874C1155.37 185.489 1155.29 184.957 1155.48 184.497ZM1161.2 178.577C1160.33 180.646 1159.37 182.737 1158.32 184.802C1159.23 185.738 1160.32 186.571 1161.54 187.261C1163.96 182.634 1166.03 177.705 1167.64 172.739C1166.3 172.353 1164.94 172.157 1163.63 172.161C1162.89 174.353 1162.07 176.508 1161.2 178.577Z" fill="#4C241D"/>
<path d="M1175.11 175.541C1174.29 178.069 1173.36 180.637 1172.27 183.228C1171.18 185.813 1170.01 188.287 1168.77 190.634C1173 190.688 1176.64 188.889 1178 185.639C1179.37 182.385 1178.11 178.523 1175.11 175.541Z" fill="#FFCE56"/>
<path d="M1173.88 175.024C1174.04 174.636 1174.38 174.345 1174.79 174.245C1175.24 174.136 1175.72 174.268 1176.05 174.596C1179.55 178.073 1180.77 182.503 1179.23 186.156C1177.7 189.803 1173.68 192.03 1168.76 191.967C1168.29 191.962 1167.87 191.714 1167.63 191.317C1167.39 190.919 1167.38 190.423 1167.59 190.015C1170.05 185.349 1172.09 180.549 1173.84 175.131C1173.85 175.095 1173.86 175.059 1173.88 175.024ZM1176.77 185.122C1177.65 183.031 1177.2 180.512 1175.62 178.212C1174.28 182.049 1172.77 185.619 1171.04 189.128C1173.78 188.65 1175.9 187.21 1176.77 185.122Z" fill="#4C241D"/>
<path d="M1168.99 148.584C1169.1 148.325 1169.29 148.1 1169.55 147.951L1175.3 144.585C1175.94 144.212 1176.75 144.426 1177.13 145.062C1177.5 145.697 1177.28 146.514 1176.65 146.885L1171.76 149.747L1173.13 155.245C1173.32 155.959 1172.88 156.682 1172.17 156.862C1171.45 157.041 1170.73 156.607 1170.55 155.892L1168.93 149.425C1168.86 149.138 1168.88 148.844 1168.99 148.584Z" fill="#4C241D"/>
<path d="M1159.27 149.301C1159.88 150.605 1160.93 151.705 1162.36 152.307C1165.42 153.591 1168.94 152.156 1170.22 149.101C1171.51 146.046 1170.07 142.529 1167.02 141.245C1165.58 140.643 1164.06 140.658 1162.7 141.137C1161.34 139.446 1159.22 137.863 1156.6 136.765C1151.17 134.481 1144.41 138.25 1144.41 138.25C1144.41 138.25 1146.45 145.719 1151.88 148.002C1154.49 149.101 1157.11 149.51 1159.27 149.301Z" fill="#FFCE56"/>
<path d="M1143.18 137.733C1143.29 137.465 1143.49 137.234 1143.76 137.084C1144.06 136.917 1151.16 133.03 1157.12 135.536C1159.51 136.54 1161.62 137.974 1163.15 139.624C1164.63 139.302 1166.15 139.435 1167.53 140.016C1171.26 141.583 1173.02 145.891 1171.45 149.618C1169.88 153.345 1165.58 155.103 1161.85 153.536C1160.47 152.955 1159.31 151.958 1158.51 150.682C1156.25 150.741 1153.75 150.236 1151.36 149.231C1145.4 146.725 1143.21 138.931 1143.12 138.602C1143.04 138.305 1143.07 138 1143.18 137.733ZM1168.99 148.584C1169.99 146.213 1168.87 143.471 1166.5 142.474C1165.45 142.031 1164.26 142.003 1163.15 142.393C1162.61 142.582 1162.02 142.412 1161.66 141.973C1160.38 140.379 1158.4 138.966 1156.09 137.994C1152.47 136.471 1148 138.073 1146.05 138.938C1146.79 140.937 1148.78 145.25 1152.4 146.773C1154.71 147.745 1157.1 148.171 1159.14 147.974C1159.7 147.919 1160.24 148.225 1160.48 148.738C1160.98 149.805 1161.83 150.635 1162.88 151.078C1165.25 152.075 1167.99 150.956 1168.99 148.584Z" fill="#4C241D"/>
<path d="M1146.26 152.744C1147.05 154.674 1151.16 154.819 1155.45 153.069C1159.74 151.319 1162.58 148.336 1161.79 146.406C1161.01 144.477 1156.89 144.331 1152.6 146.081C1148.31 147.832 1145.47 150.814 1146.26 152.744Z" fill="white"/>
<path d="M1145.13 150.553C1146.01 148.464 1148.55 146.299 1152.09 144.855C1157.22 142.761 1161.92 143.215 1163.02 145.911C1164.12 148.606 1161.08 152.22 1155.95 154.312C1153.71 155.229 1151.41 155.696 1149.49 155.627C1147.2 155.546 1145.61 154.704 1145.02 153.257C1144.68 152.419 1144.74 151.493 1145.13 150.553ZM1160.47 147.6C1160.59 147.317 1160.62 147.082 1160.55 146.918C1160.23 146.122 1157.15 145.67 1153.1 147.324C1149.05 148.978 1147.17 151.453 1147.49 152.249C1147.62 152.573 1148.32 152.918 1149.58 152.963C1151.11 153.018 1153.07 152.609 1154.94 151.844C1158.16 150.529 1160.01 148.697 1160.47 147.6Z" fill="#4C241D"/>
<path d="M1155.7 138.711C1157.45 143 1160.43 145.839 1162.36 145.052C1164.29 144.264 1164.44 140.149 1162.69 135.86C1160.94 131.571 1157.96 128.733 1156.03 129.52C1154.1 130.307 1153.95 134.423 1155.7 138.711Z" fill="white"/>
<path d="M1153.66 130.262C1154.06 129.321 1154.68 128.633 1155.52 128.291C1156.96 127.701 1158.68 128.245 1160.34 129.827C1161.73 131.151 1163 133.118 1163.92 135.363C1166.01 140.495 1165.56 145.194 1162.86 146.294C1160.17 147.394 1156.55 144.354 1154.46 139.222C1153.02 135.684 1152.78 132.352 1153.66 130.262ZM1162.29 143.292C1162.75 142.195 1162.76 139.591 1161.45 136.37C1160.68 134.495 1159.61 132.813 1158.5 131.758C1157.58 130.886 1156.85 130.628 1156.52 130.76C1155.73 131.087 1155.28 134.162 1156.93 138.215C1158.58 142.267 1161.06 144.15 1161.85 143.825C1162.02 143.758 1162.17 143.575 1162.29 143.292Z" fill="#4C241D"/>
<path d="M1142.3 187.987C1142.41 187.727 1142.6 187.503 1142.86 187.353L1148.61 183.987C1149.25 183.614 1150.07 183.828 1150.44 184.464C1150.81 185.099 1150.6 185.917 1149.96 186.288L1145.07 189.15L1146.44 194.647C1146.63 195.362 1146.19 196.085 1145.48 196.264C1144.76 196.444 1144.04 196.009 1143.86 195.294L1142.24 188.828C1142.17 188.54 1142.19 188.246 1142.3 187.987Z" fill="#4C241D"/>
<path d="M1132.58 188.703C1133.19 190.007 1134.24 191.108 1135.67 191.709C1138.73 192.993 1142.25 191.558 1143.53 188.503C1144.82 185.449 1143.38 181.931 1140.33 180.647C1138.89 180.046 1137.37 180.06 1136.01 180.539C1134.65 178.848 1132.53 177.266 1129.91 176.167C1124.48 173.884 1117.72 177.652 1117.72 177.652C1117.72 177.652 1119.76 185.122 1125.19 187.405C1127.8 188.503 1130.42 188.913 1132.58 188.703Z" fill="#FFCE56"/>
<path d="M1116.49 177.135C1116.6 176.867 1116.8 176.636 1117.07 176.486C1117.37 176.32 1124.47 172.432 1130.43 174.938C1132.82 175.943 1134.93 177.377 1136.46 179.027C1137.94 178.704 1139.46 178.837 1140.84 179.418C1144.57 180.985 1146.33 185.293 1144.76 189.02C1143.19 192.747 1138.89 194.505 1135.16 192.938C1133.78 192.357 1132.62 191.361 1131.82 190.084C1129.56 190.143 1127.06 189.638 1124.67 188.633C1118.71 186.128 1116.52 178.334 1116.43 178.004C1116.35 177.707 1116.38 177.403 1116.49 177.135ZM1142.3 187.987C1143.3 185.615 1142.18 182.873 1139.81 181.876C1138.76 181.434 1137.57 181.405 1136.46 181.796C1135.92 181.984 1135.33 181.815 1134.97 181.375C1133.69 179.781 1131.71 178.368 1129.4 177.396C1125.78 175.873 1121.31 177.475 1119.36 178.34C1120.1 180.339 1122.09 184.653 1125.71 186.175C1128.02 187.147 1130.41 187.573 1132.45 187.376C1133.01 187.322 1133.55 187.627 1133.79 188.14C1134.29 189.207 1135.14 190.037 1136.19 190.48C1138.56 191.477 1141.3 190.359 1142.3 187.987Z" fill="#4C241D"/>
<path d="M1119.57 192.139C1120.36 194.069 1124.47 194.214 1128.76 192.464C1133.05 190.714 1135.89 187.731 1135.1 185.802C1134.31 183.872 1130.2 183.727 1125.91 185.477C1121.62 187.227 1118.78 190.21 1119.57 192.139Z" fill="white"/>
<path d="M1118.44 189.956C1119.32 187.866 1121.86 185.701 1125.4 184.257C1130.53 182.163 1135.23 182.618 1136.33 185.313C1137.43 188.008 1134.39 191.62 1129.26 193.715C1127.02 194.631 1124.72 195.098 1122.8 195.03C1120.51 194.949 1118.92 194.106 1118.33 192.659C1117.99 191.822 1118.05 190.895 1118.44 189.956ZM1133.78 187.002C1133.9 186.719 1133.93 186.484 1133.86 186.321C1133.54 185.524 1130.46 185.073 1126.41 186.726C1122.36 188.38 1120.48 190.856 1120.8 191.652C1120.93 191.975 1121.63 192.32 1122.89 192.366C1124.42 192.42 1126.38 192.011 1128.25 191.246C1131.47 189.931 1133.32 188.099 1133.78 187.002Z" fill="#4C241D"/>
<path d="M1129.01 178.107C1130.76 182.396 1133.74 185.234 1135.67 184.447C1137.6 183.659 1137.75 179.544 1136 175.255C1134.25 170.966 1131.27 168.128 1129.34 168.915C1127.41 169.703 1127.26 173.818 1129.01 178.107Z" fill="white"/>
<path d="M1126.97 169.664C1127.37 168.723 1127.99 168.035 1128.83 167.694C1130.27 167.103 1131.99 167.648 1133.65 169.229C1135.04 170.553 1136.31 172.52 1137.23 174.765C1139.32 179.896 1138.87 184.596 1136.17 185.696C1133.48 186.796 1129.86 183.756 1127.77 178.624C1126.33 175.087 1126.09 171.754 1126.97 169.664ZM1135.6 182.694C1136.06 181.597 1136.07 178.993 1134.76 175.773C1133.99 173.897 1132.92 172.215 1131.81 171.16C1130.89 170.288 1130.16 170.03 1129.83 170.162C1129.04 170.489 1128.59 173.565 1130.24 177.617C1131.89 181.67 1134.37 183.552 1135.16 183.227C1135.33 183.161 1135.48 182.977 1135.6 182.694Z" fill="#4C241D"/>
<path d="M1141.17 125.316C1141.45 124.637 1142.24 124.318 1142.91 124.604L1151.52 128.221C1152.2 128.506 1152.52 129.287 1152.23 129.967C1151.95 130.646 1151.16 130.964 1150.49 130.679L1141.88 127.062C1141.2 126.776 1140.88 125.995 1141.17 125.316Z" fill="#4C241D"/>
<path d="M1133.47 126.42C1133.76 125.74 1134.54 125.422 1135.22 125.707L1143.82 129.324C1144.5 129.61 1144.82 130.391 1144.53 131.07C1144.25 131.75 1143.47 132.068 1142.79 131.783L1134.19 128.165C1133.51 127.88 1133.19 127.099 1133.47 126.42Z" fill="#4C241D"/>
<path d="M1139.37 143.362C1139.65 142.682 1140.43 142.364 1141.11 142.649L1142.34 143.166C1143.02 143.451 1143.34 144.232 1143.05 144.912C1142.77 145.591 1141.99 145.91 1141.31 145.624L1140.08 145.108C1139.4 144.822 1139.08 144.041 1139.37 143.362Z" fill="#4C241D"/>
<path d="M1129.93 145.178C1130.21 144.498 1130.99 144.18 1131.67 144.465L1139.05 147.566C1139.73 147.851 1140.04 148.632 1139.76 149.312C1139.47 149.991 1138.69 150.309 1138.01 150.024L1130.64 146.924C1129.96 146.638 1129.64 145.857 1129.93 145.178Z" fill="#4C241D"/>
<path d="M1147.72 161.337C1148.01 160.658 1148.79 160.339 1149.47 160.625L1159.3 164.759C1159.98 165.044 1160.3 165.825 1160.01 166.505C1159.73 167.184 1158.94 167.502 1158.27 167.217L1148.43 163.083C1147.75 162.798 1147.43 162.016 1147.72 161.337Z" fill="#4C241D"/>
<path d="M1114.48 164.718C1114.76 164.039 1115.55 163.72 1116.22 164.006L1118.68 165.039C1119.36 165.325 1119.68 166.106 1119.4 166.785C1119.11 167.465 1118.33 167.783 1117.65 167.498L1115.19 166.464C1114.51 166.179 1114.19 165.398 1114.48 164.718Z" fill="#4C241D"/>
<path d="M1106.21 184.384C1106.5 183.705 1107.28 183.386 1107.96 183.672L1116.56 187.289C1117.24 187.574 1117.56 188.356 1117.27 189.035C1116.99 189.714 1116.21 190.033 1115.53 189.747L1106.92 186.13C1106.24 185.845 1105.93 185.064 1106.21 184.384Z" fill="#4C241D"/>
<path d="M1135.82 162.12C1136.11 161.44 1136.89 161.122 1137.57 161.407L1149.86 166.575C1150.54 166.86 1150.86 167.641 1150.57 168.321C1150.28 169 1149.5 169.318 1148.82 169.033L1136.53 163.866C1135.85 163.58 1135.53 162.799 1135.82 162.12Z" fill="#4C241D"/>
<path d="M1145.01 174.662C1145.3 173.982 1146.08 173.664 1146.76 173.949L1149.22 174.983C1149.89 175.268 1150.21 176.049 1149.93 176.729C1149.64 177.408 1148.86 177.727 1148.18 177.441L1145.72 176.408C1145.04 176.122 1144.73 175.341 1145.01 174.662Z" fill="#4C241D"/>
<path d="M1193.92 161.957C1194.21 161.278 1194.99 160.959 1195.67 161.245L1197.41 161.976C1198.08 162.261 1198.4 163.043 1198.12 163.722C1197.83 164.401 1197.05 164.72 1196.37 164.434L1194.63 163.703C1193.95 163.418 1193.63 162.637 1193.92 161.957Z" fill="#4C241D"/>
<path d="M1186.96 159.033C1187.25 158.353 1188.03 158.035 1188.71 158.32L1190.45 159.052C1191.13 159.337 1191.45 160.118 1191.16 160.797C1190.88 161.477 1190.09 161.795 1189.42 161.51L1187.68 160.779C1187 160.493 1186.68 159.712 1186.96 159.033Z" fill="#4C241D"/>
<path d="M1192.41 158.253L1193.14 156.513C1193.43 155.834 1194.21 155.516 1194.89 155.801C1195.56 156.086 1195.88 156.867 1195.6 157.547L1194.87 159.286C1194.58 159.965 1193.8 160.284 1193.12 159.998C1192.44 159.713 1192.12 158.932 1192.41 158.253Z" fill="#4C241D"/>
<path d="M1189.48 165.209L1190.22 163.469C1190.5 162.79 1191.28 162.472 1191.96 162.757C1192.64 163.042 1192.96 163.823 1192.67 164.503L1191.94 166.242C1191.66 166.921 1190.88 167.24 1190.2 166.954C1189.52 166.669 1189.2 165.888 1189.48 165.209Z" fill="#4C241D"/>
</g>
<g clip-path="url(#clip7)">
<path fill-rule="evenodd" clip-rule="evenodd" d="M527.69 208.129C525.97 212.366 521.824 215.669 516.618 216.392C511.771 217.068 507.194 215.335 504.319 212.172C503.615 211.4 503.634 211.541 504.1 210.606C506.003 206.78 509.937 203.867 514.785 203.192C519.99 202.468 524.881 204.516 527.69 208.129Z" fill="#B3E59F"/>
<path fill-rule="evenodd" clip-rule="evenodd" d="M547.465 197.502C551.948 198.405 556.99 196.77 560.465 192.828C563.704 189.158 564.784 184.385 563.733 180.242C563.478 179.229 563.585 179.323 562.548 179.195C558.307 178.671 553.706 180.345 550.468 184.015C546.993 187.957 546.002 193.165 547.465 197.502Z" fill="#B3E59F"/>
<path fill-rule="evenodd" clip-rule="evenodd" d="M513.81 195.997C516.562 194.851 518.687 192.125 519.121 188.724C519.526 185.559 518.368 182.586 516.285 180.732C515.779 180.282 515.865 180.291 515.26 180.604C512.778 181.869 510.905 184.453 510.501 187.618C510.066 191.02 511.438 194.192 513.81 195.997Z" fill="#B3E59F"/>
<path fill-rule="evenodd" clip-rule="evenodd" d="M545.006 179.232C542.531 180.895 539.086 181.162 536.01 179.648C533.147 178.239 531.306 175.633 530.91 172.872C530.814 172.202 530.774 172.279 531.368 171.947C533.793 170.575 536.981 170.439 539.844 171.848C542.921 173.363 544.81 176.257 545.006 179.232Z" fill="#B3E59F"/>
<path d="M502.89 193.198C502.125 192.944 501.706 192.119 501.956 191.356C502.211 190.59 503.036 190.172 503.804 190.419C510.392 192.573 515.85 194.87 520.798 198.697C525.749 202.529 529.427 206.555 533.806 214.704C534.189 215.416 533.918 216.303 533.206 216.686C532.494 217.069 531.609 216.802 531.227 216.09C527.049 208.317 523.627 204.581 519.011 201.009C514.392 197.432 509.193 195.254 502.89 193.198Z" fill="#66B394"/>
<path fill-rule="evenodd" clip-rule="evenodd" d="M481.494 186.658C482.271 183.72 487.22 183.348 489.637 183.589C491.716 183.798 491.488 183.455 490.734 181.724C489.775 179.53 488.674 174.874 491.152 173.24C493.587 171.736 498.104 174.633 501.239 179.705C506.027 187.446 503.797 196.909 496.056 201.698C490.982 204.84 485.651 205.411 484.142 202.978C482.616 200.348 485.856 196.589 487.738 195.05C489.339 193.737 488.905 193.63 487.186 192.958C484.963 192.085 480.891 189.559 481.494 186.658Z" fill="#62D9FA"/>
<path fill-rule="evenodd" clip-rule="evenodd" d="M489.787 175.413C490.001 174.431 490.452 173.679 491.152 173.24C493.587 171.736 498.104 174.633 501.239 179.705C506.027 187.446 503.797 196.909 496.056 201.698C494.915 202.405 493.766 202.979 492.649 203.416C499.659 198.473 501.536 189.451 496.937 182.017C494.825 178.601 492.093 176.172 489.787 175.413Z" fill="#54D0F2"/>
<path d="M545.876 167.809C546.093 167.032 546.897 166.575 547.671 166.788C548.45 166.998 548.907 167.801 548.698 168.58C546.934 174.971 545.881 180.509 546.316 186.334C546.747 192.155 547.975 197.07 552.153 204.844C552.535 205.556 552.269 206.441 551.557 206.823C550.845 207.206 549.955 206.943 549.573 206.231C545.193 198.081 543.866 192.792 543.402 186.549C542.94 180.311 544.037 174.492 545.876 167.809Z" fill="#66B394"/>
<path fill-rule="evenodd" clip-rule="evenodd" d="M555.05 147.127C552.223 146.171 549.245 149.927 548.113 152.043C547.026 154.067 546.864 153.695 545.712 151.938C544.413 149.965 541.199 146.639 538.53 147.778C535.932 148.979 535.855 154.344 538.356 159.757C542.169 168.022 551.292 171.385 559.557 167.572C564.977 165.073 568.395 160.942 567.199 158.342C565.929 155.781 561.468 156.18 559.23 156.823C558.672 156.978 557.109 157.636 556.964 156.746C556.885 156.248 557.287 154.706 557.364 154.042C557.605 151.882 557.474 148.094 555.05 147.127Z" fill="#62D9FA"/>
<path d="M515.857 165.4C515.475 164.688 515.738 163.798 516.45 163.416C517.167 163.03 518.054 163.301 518.437 164.013L542.98 209.774C543.362 210.486 543.096 211.371 542.379 211.756C541.667 212.139 540.782 211.873 540.4 211.161L515.857 165.4Z" fill="#66B394"/>
<path fill-rule="evenodd" clip-rule="evenodd" d="M495.079 123.65C497.706 122.339 501.486 125.794 503.114 127.49C504.934 129.391 505.364 128.343 506.524 126.525C507.71 124.674 510.632 121.13 513.199 121.825C515.916 122.728 516.21 127.661 516.152 129.974C516.091 132.515 516.632 132.563 518.985 132.028C521.184 131.525 525.921 130.947 527.304 133.346C528.565 135.867 525.312 139.614 523.652 141.192C521.823 142.923 522.171 143.383 524.19 144.649C526.095 145.844 529.848 148.804 529.129 151.466C528.228 154.176 523.295 154.47 520.988 154.421C518.494 154.366 518.423 154.982 518.936 157.259C519.437 159.453 519.993 164.195 517.606 165.566C515.041 166.851 511.369 163.563 509.757 161.896C507.731 159.799 507.33 160.925 506.022 162.911C504.836 164.704 501.993 168.068 499.493 167.394C496.874 166.52 496.481 161.765 496.533 159.512C496.597 156.719 496.028 156.666 493.449 157.247C491.294 157.727 486.725 158.196 485.388 155.872C484.114 153.327 487.378 149.611 489.046 148.024C491.2 145.974 490.042 145.609 488.041 144.283C486.25 143.103 482.889 140.251 483.563 137.752C484.45 135.075 489.409 134.723 491.695 134.79C494.273 134.862 494.271 134.285 493.739 131.95C493.241 129.76 492.707 125.013 495.079 123.65V123.65Z" fill="#FD91BA"/>
<path fill-rule="evenodd" clip-rule="evenodd" d="M510.569 152.472C514.904 150.142 516.537 144.714 514.21 140.383C511.883 136.052 506.452 134.414 502.116 136.744C497.786 139.071 496.155 144.505 498.482 148.835C500.81 153.166 506.238 154.799 510.569 152.472Z" fill="#FCBF66"/>
<path fill-rule="evenodd" clip-rule="evenodd" d="M519.35 143.504C517.521 145.235 517.869 145.695 519.888 146.961C521.794 148.155 525.547 151.116 524.828 153.778C524.782 153.916 524.727 154.046 524.661 154.169C526.64 153.829 528.592 153.075 529.129 151.466C529.848 148.805 526.095 145.844 524.189 144.649C522.17 143.383 521.823 142.923 523.651 141.192C525.312 139.615 528.565 135.868 527.304 133.346C525.92 130.947 521.184 131.525 518.984 132.028C516.632 132.563 516.091 132.515 516.152 129.974C516.21 127.661 515.916 122.728 513.199 121.825C511.589 121.389 509.836 122.62 508.464 124.055C508.611 124.071 508.755 124.094 508.898 124.137C511.614 125.04 511.909 129.973 511.85 132.286C511.789 134.827 512.331 134.875 514.683 134.34C516.883 133.837 521.619 133.259 523.002 135.658C524.264 138.179 521.01 141.926 519.35 143.504Z" fill="#F585B0"/>
<path fill-rule="evenodd" clip-rule="evenodd" d="M510.569 152.472C514.914 150.137 516.543 144.723 514.21 140.383C511.875 136.038 506.461 134.409 502.116 136.744C501.375 137.143 500.708 137.633 500.126 138.197C503.93 137.359 507.975 139.095 509.909 142.695C511.84 146.289 511.056 150.619 508.258 153.33C509.051 153.156 509.822 152.873 510.569 152.472Z" fill="#F7B551"/>
<path fill-rule="evenodd" clip-rule="evenodd" d="M567.199 158.342C565.929 155.781 561.467 156.18 559.23 156.823C558.672 156.978 557.109 157.636 556.964 156.746C556.885 156.248 557.287 154.706 557.364 154.042C557.605 151.882 557.474 148.094 555.05 147.127C553.288 146.528 551.464 147.766 550.068 149.296C550.296 149.311 550.523 149.359 550.748 149.439C553.172 150.405 553.304 154.194 553.063 156.354C552.986 157.017 552.583 158.56 552.662 159.058C552.807 159.948 554.371 159.29 554.928 159.135C557.166 158.492 561.628 158.093 562.897 160.654C563.824 162.67 561.973 165.613 558.571 167.994C558.897 167.863 559.229 167.722 559.557 167.571C564.977 165.073 568.395 160.942 567.199 158.342Z" fill="#54D0F2"/>
<path fill-rule="evenodd" clip-rule="evenodd" d="M563.733 180.242C563.478 179.229 563.584 179.323 562.548 179.195C559.129 178.775 555.48 179.775 552.495 182.102C554.384 181.477 556.35 181.275 558.246 181.506C559.283 181.634 559.176 181.541 559.432 182.554C560.483 186.697 559.402 191.47 556.164 195.139C555.536 195.854 554.854 196.491 554.137 197.052C556.468 196.277 558.677 194.857 560.465 192.828C563.704 189.158 564.784 184.385 563.733 180.242Z" fill="#95D6A4"/>
<path fill-rule="evenodd" clip-rule="evenodd" d="M544.017 175.835C543.138 174.189 541.707 172.765 539.844 171.849C536.981 170.439 533.793 170.575 531.368 171.947C530.774 172.28 530.814 172.202 530.91 172.873C530.926 172.971 530.943 173.075 530.959 173.173C532.473 173.114 534.05 173.429 535.543 174.16C538.303 175.518 540.11 177.992 540.594 180.635C541.591 180.596 542.564 180.394 543.462 180.043C543.585 178.644 543.771 177.249 544.017 175.835Z" fill="#95D6A4"/>
<path fill-rule="evenodd" clip-rule="evenodd" d="M519.121 188.724C519.526 185.559 518.368 182.586 516.285 180.732C515.779 180.282 515.866 180.291 515.26 180.604C514.072 181.211 513.021 182.121 512.207 183.25C514.145 185.113 515.21 187.985 514.82 191.035C514.667 192.236 514.304 193.349 513.776 194.343C514.301 194.608 514.822 194.875 515.338 195.157C517.323 193.764 518.771 191.464 519.121 188.724Z" fill="#95D6A4"/>
<path fill-rule="evenodd" clip-rule="evenodd" d="M522.867 204.348C520.476 203.244 517.681 202.792 514.785 203.192C512.101 203.566 509.702 204.622 507.77 206.138C508.633 205.85 509.541 205.633 510.483 205.503C515.688 204.78 520.579 206.828 523.388 210.441C522.555 212.492 521.147 214.329 519.332 215.757C522.773 214.606 525.538 212.265 527.109 209.353C525.714 207.4 524.331 205.786 522.867 204.348Z" fill="#95D6A4"/>
</g>
<defs>
<linearGradient id="paint0_linear" x1="948" y1="0" x2="948" y2="787" gradientUnits="userSpaceOnUse">
<stop stop-color="#FDC826" stop-opacity="0"/>
<stop offset="0.515625" stop-color="#FDC826" stop-opacity="0.18"/>
<stop offset="1" stop-color="#FDC826"/>
</linearGradient>
<clipPath id="clip0">
<rect width="100" height="100" fill="white" transform="translate(749.967 357) rotate(30.6417)"/>
</clipPath>
<clipPath id="clip1">
<rect width="100" height="100" fill="white" transform="translate(1396.97 238) rotate(30.6417)"/>
</clipPath>
<clipPath id="clip2">
<rect width="100" height="100" fill="white" transform="translate(1229 276.231) rotate(-28.8365)"/>
</clipPath>
<clipPath id="clip3">
<rect width="100" height="100" fill="white" transform="translate(1652 249)"/>
</clipPath>
<clipPath id="clip4">
<rect width="100" height="100" fill="white" transform="translate(154 92)"/>
</clipPath>
<clipPath id="clip5">
<rect width="100" height="100" fill="white" transform="translate(1021 70)"/>
</clipPath>
<clipPath id="clip6">
<rect width="100" height="100" fill="white" transform="translate(1222.32 142.14) rotate(112.803)"/>
</clipPath>
<clipPath id="clip7">
<rect width="100" height="100" fill="white" transform="translate(451 147.339) rotate(-28.2545)"/>
</clipPath>
</defs>
</svg>
