<svg width="100" height="100" viewBox="0 0 100 100" fill="none" xmlns="http://www.w3.org/2000/svg">
<path d="M85.3516 23.6328C82.7807 23.6328 80.2506 24.3092 78.0467 25.5818L63.8982 33.6625C63.201 31.5699 62.0445 29.6869 60.5477 28.1318C63.0094 26.5727 64.6484 23.8266 64.6484 20.7031C64.6484 16.7908 63.133 13.0861 60.3814 10.2711C59.8791 9.75723 59.3463 9.28672 58.7891 8.85781V8.78906C58.7891 7.17363 60.1033 5.85938 61.7188 5.85938C63.3367 5.85938 64.6484 4.54766 64.6484 2.92969C64.6484 1.31172 63.3367 0 61.7188 0C57.7564 0 54.3996 2.63613 53.3063 6.24609C52.2334 5.99336 51.1268 5.85938 50 5.85938C48.8734 5.85938 47.7666 5.99336 46.6938 6.24629C45.6006 2.63613 42.2436 0 38.2812 0C36.6633 0 35.3516 1.31172 35.3516 2.92969C35.3516 4.54766 36.6633 5.85938 38.2812 5.85938C39.8967 5.85938 41.2109 7.17363 41.2109 8.78906V8.85801C40.6535 9.28672 40.1207 9.75742 39.6186 10.2713C36.867 13.0861 35.3516 16.791 35.3516 20.7031C35.3516 23.8266 36.9906 26.5727 39.4525 28.1318C37.9557 29.6869 36.7992 31.5701 36.102 33.6625L21.9654 25.5887C19.7492 24.3092 17.2191 23.6328 14.6484 23.6328C6.57129 23.6328 0 30.2041 0 38.2812C0 46.3584 6.57129 52.9297 14.6484 52.9297C17.2191 52.9297 19.7492 52.2533 21.9533 50.9807L36.1018 42.9C36.9529 45.4549 38.4891 47.6979 40.4926 49.4119C33.7473 52.9562 29.4922 59.9125 29.4922 67.5781C29.4922 77.7908 34.3463 82.282 42.0357 86.5234C45.6133 88.4967 47.0703 89.473 47.0703 91.2109V97.0703C47.0703 98.6883 48.382 100 50 100C51.618 100 52.9297 98.6883 52.9297 97.0703V91.2109C52.9297 89.473 54.3867 88.4967 57.9643 86.5234C65.7652 82.2205 70.5078 77.6984 70.5078 67.5781C70.5078 59.8986 66.2311 52.9449 59.5072 49.4117C61.5109 47.6977 63.0469 45.4547 63.898 42.8998L78.0346 50.9736C80.2506 52.2533 82.7807 52.9297 85.3516 52.9297C93.4287 52.9297 100 46.3584 100 38.2812C100 30.2041 93.4287 23.6328 85.3516 23.6328ZM19.0354 45.8994C17.7088 46.6654 16.1918 47.0703 14.6484 47.0703C9.80215 47.0703 5.85938 43.1275 5.85938 38.2812C5.85938 33.435 9.80215 29.4922 14.6484 29.4922C16.1918 29.4922 17.7088 29.8971 19.0473 30.6699L32.374 38.2812L19.0354 45.8994ZM50 11.7188C54.7643 11.7188 58.7891 15.833 58.7891 20.7031C58.7891 22.3186 57.4748 23.6328 55.8594 23.6328H44.1406C42.5252 23.6328 41.2109 22.3186 41.2109 20.7031C41.2109 15.833 45.2357 11.7188 50 11.7188ZM50 29.4922C54.8463 29.4922 58.7891 33.435 58.7891 38.2812C58.7891 43.1275 54.8463 47.0703 50 47.0703C45.1537 47.0703 41.2109 43.1275 41.2109 38.2812C41.2109 33.435 45.1537 29.4922 50 29.4922ZM55.1344 81.3928C53.3705 82.3656 51.4969 83.3994 50 84.7709C48.5029 83.3994 46.6295 82.3656 44.8656 81.3928C42.2949 79.975 39.8004 78.5971 38.0104 76.3652H61.9894C60.1996 78.5971 57.7051 79.975 55.1344 81.3928ZM64.6484 67.5781C64.6484 68.6439 64.5768 69.6164 64.442 70.5078H35.558C35.4234 69.6164 35.3516 68.6439 35.3516 67.5781C35.3516 66.575 35.4533 65.5953 35.6463 64.6484H64.3535C64.5467 65.5953 64.6484 66.575 64.6484 67.5781ZM61.7107 58.7891H38.2893C40.9645 55.2336 45.218 52.9297 50 52.9297C54.782 52.9297 59.0355 55.2336 61.7107 58.7891ZM85.3516 47.0703C83.808 47.0703 82.291 46.6654 80.9527 45.8926L67.626 38.2812L80.9646 30.6629C82.291 29.8971 83.808 29.4922 85.3516 29.4922C90.1979 29.4922 94.1406 33.435 94.1406 38.2812C94.1406 43.1275 90.1979 47.0703 85.3516 47.0703Z" fill="url(#paint0_linear)"/>
<defs>
<linearGradient id="paint0_linear" x1="50" y1="100" x2="50" y2="0" gradientUnits="userSpaceOnUse">
<stop stop-color="#FD5900"/>
<stop offset="1" stop-color="#FFDE00"/>
</linearGradient>
</defs>
</svg>
