<svg width="1920" height="485" viewBox="0 0 1920 485" fill="none" xmlns="http://www.w3.org/2000/svg">
<path d="M38.6025 145.301L81.9038 220.301H-4.69873L38.6025 145.301Z" fill="#FDC826"/>
<path d="M38.6025 145.301L125.205 145.301L81.9038 220.301L38.6025 145.301Z" fill="#FDC826"/>
<path d="M81.7532 220.04L168.356 220.04L125.054 295.04L81.7532 220.04Z" fill="#FDC826"/>
<path d="M81.7532 220.04L125.054 145.04L168.356 220.04L81.7532 220.04Z" fill="#FDC826"/>
<path d="M38.4519 295.04L81.7532 220.04L125.054 295.04L38.4519 295.04Z" fill="#FDC826"/>
<path d="M38.4519 295.04L-4.84936 220.04L81.7532 220.04L38.4519 295.04Z" fill="#FDC826"/>
<path d="M-0.397461 145.301L42.9038 220.301H-43.6987L-0.397461 145.301Z" fill="#FDC826"/>
<path d="M-0.397462 145.301L86.2051 145.301L42.9038 220.301L-0.397462 145.301Z" fill="#FDC826"/>
<path d="M42.7532 220.04L129.356 220.04L86.0544 295.04L42.7532 220.04Z" fill="#FDC826"/>
<path d="M42.7532 220.04L86.0544 145.04L129.356 220.04L42.7532 220.04Z" fill="#FDC826"/>
<path d="M-0.548096 295.04L42.7532 220.04L86.0544 295.04L-0.548096 295.04Z" fill="#FDC826"/>
<path d="M-0.548093 295.04L-43.8494 220.04L42.7532 220.04L-0.548093 295.04Z" fill="#FDC826"/>
<path d="M162.603 220.301L205.904 295.301H119.301L162.603 220.301Z" fill="#FDC826"/>
<path d="M162.603 220.301L249.205 220.301L205.904 295.301L162.603 220.301Z" fill="#FDC826"/>
<path d="M205.753 295.04L292.356 295.04L249.054 370.04L205.753 295.04Z" fill="#FDC826"/>
<path d="M205.753 295.04L249.054 220.04L292.356 295.04L205.753 295.04Z" fill="#FDC826"/>
<path d="M162.452 370.04L205.753 295.04L249.054 370.04L162.452 370.04Z" fill="#FDC826"/>
<path d="M162.452 370.04L119.151 295.04L205.753 295.04L162.452 370.04Z" fill="#FDC826"/>
<path d="M162.603 93.3013L205.904 168.301H119.301L162.603 93.3013Z" fill="#FDC826"/>
<path d="M162.603 93.3013L249.205 93.3013L205.904 168.301L162.603 93.3013Z" fill="#FDC826"/>
<path d="M205.753 168.04L292.356 168.04L249.054 243.04L205.753 168.04Z" fill="#FDC826"/>
<path d="M205.753 168.04L249.054 93.0403L292.356 168.04L205.753 168.04Z" fill="#FDC826"/>
<path d="M162.452 243.04L205.753 168.04L249.054 243.04L162.452 243.04Z" fill="#FDC826"/>
<path d="M162.452 243.04L119.151 168.04L205.753 168.04L162.452 243.04Z" fill="#FDC826"/>
<path d="M291.603 145.301L334.904 220.301H248.301L291.603 145.301Z" fill="#FDC826"/>
<path d="M291.603 145.301L378.205 145.301L334.904 220.301L291.603 145.301Z" fill="#FDC826"/>
<path d="M334.753 220.04L421.356 220.04L378.054 295.04L334.753 220.04Z" fill="#FDC826"/>
<path d="M334.753 220.04L378.054 145.04L421.356 220.04L334.753 220.04Z" fill="#FDC826"/>
<path d="M291.452 295.04L334.753 220.04L378.054 295.04L291.452 295.04Z" fill="#FDC826"/>
<path d="M291.452 295.04L248.151 220.04L334.753 220.04L291.452 295.04Z" fill="#FDC826"/>
<path d="M415.603 216.301L458.904 291.301H372.301L415.603 216.301Z" fill="#FDC826"/>
<path d="M415.603 216.301L502.205 216.301L458.904 291.301L415.603 216.301Z" fill="#FDC826"/>
<path d="M458.753 291.04L545.356 291.04L502.054 366.04L458.753 291.04Z" fill="#FDC826"/>
<path d="M458.753 291.04L502.054 216.04L545.356 291.04L458.753 291.04Z" fill="#FDC826"/>
<path d="M415.452 366.04L458.753 291.04L502.054 366.04L415.452 366.04Z" fill="#FDC826"/>
<path d="M415.452 366.04L372.151 291.04L458.753 291.04L415.452 366.04Z" fill="#FDC826"/>
<path d="M410.603 96.3013L453.904 171.301H367.301L410.603 96.3013Z" fill="#FDC826"/>
<path d="M410.603 96.3013L497.205 96.3013L453.904 171.301L410.603 96.3013Z" fill="#FDC826"/>
<path d="M453.753 171.04L540.356 171.04L497.054 246.04L453.753 171.04Z" fill="#FDC826"/>
<path d="M453.753 171.04L497.054 96.0403L540.356 171.04L453.753 171.04Z" fill="#FDC826"/>
<path d="M410.452 246.04L453.753 171.04L497.054 246.04L410.452 246.04Z" fill="#FDC826"/>
<path d="M410.452 246.04L367.151 171.04L453.753 171.04L410.452 246.04Z" fill="#FDC826"/>
<path d="M539.603 144.301L582.904 219.301H496.301L539.603 144.301Z" fill="#FDC826"/>
<path d="M539.603 144.301L626.205 144.301L582.904 219.301L539.603 144.301Z" fill="#FDC826"/>
<path d="M582.753 219.04L669.356 219.04L626.054 294.04L582.753 219.04Z" fill="#FDC826"/>
<path d="M582.753 219.04L626.054 144.04L669.356 219.04L582.753 219.04Z" fill="#FDC826"/>
<path d="M539.452 294.04L582.753 219.04L626.054 294.04L539.452 294.04Z" fill="#FDC826"/>
<path d="M539.452 294.04L496.151 219.04L582.753 219.04L539.452 294.04Z" fill="#FDC826"/>
<path d="M665.603 215.301L708.904 290.301H622.301L665.603 215.301Z" fill="#FDC826"/>
<path d="M665.603 215.301L752.205 215.301L708.904 290.301L665.603 215.301Z" fill="#FDC826"/>
<path d="M708.753 290.04L795.356 290.04L752.054 365.04L708.753 290.04Z" fill="#FDC826"/>
<path d="M708.753 290.04L752.054 215.04L795.356 290.04L708.753 290.04Z" fill="#FDC826"/>
<path d="M665.452 365.04L708.753 290.04L752.054 365.04L665.452 365.04Z" fill="#FDC826"/>
<path d="M665.452 365.04L622.151 290.04L708.753 290.04L665.452 365.04Z" fill="#FDC826"/>
<path d="M663.603 103.301L706.904 178.301H620.301L663.603 103.301Z" fill="#FDC826"/>
<path d="M663.603 103.301L750.205 103.301L706.904 178.301L663.603 103.301Z" fill="#FDC826"/>
<path d="M706.753 178.04L793.356 178.04L750.054 253.04L706.753 178.04Z" fill="#FDC826"/>
<path d="M706.753 178.04L750.054 103.04L793.356 178.04L706.753 178.04Z" fill="#FDC826"/>
<path d="M663.452 253.04L706.753 178.04L750.054 253.04L663.452 253.04Z" fill="#FDC826"/>
<path d="M663.452 253.04L620.151 178.04L706.753 178.04L663.452 253.04Z" fill="#FDC826"/>
<path d="M792.603 140.301L835.904 215.301H749.301L792.603 140.301Z" fill="#FDC826"/>
<path d="M792.603 140.301L879.205 140.301L835.904 215.301L792.603 140.301Z" fill="#FDC826"/>
<path d="M835.753 215.04L922.356 215.04L879.054 290.04L835.753 215.04Z" fill="#FDC826"/>
<path d="M835.753 215.04L879.054 140.04L922.356 215.04L835.753 215.04Z" fill="#FDC826"/>
<path d="M792.452 290.04L835.753 215.04L879.054 290.04L792.452 290.04Z" fill="#FDC826"/>
<path d="M792.452 290.04L749.151 215.04L835.753 215.04L792.452 290.04Z" fill="#FDC826"/>
<path d="M916.603 215.301L959.904 290.301H873.301L916.603 215.301Z" fill="#FDC826"/>
<path d="M916.603 215.301L1003.21 215.301L959.904 290.301L916.603 215.301Z" fill="#FDC826"/>
<path d="M959.753 290.04L1046.36 290.04L1003.05 365.04L959.753 290.04Z" fill="#FDC826"/>
<path d="M959.753 290.04L1003.05 215.04L1046.36 290.04L959.753 290.04Z" fill="#FDC826"/>
<path d="M916.452 365.04L959.753 290.04L1003.05 365.04L916.452 365.04Z" fill="#FDC826"/>
<path d="M916.452 365.04L873.151 290.04L959.753 290.04L916.452 365.04Z" fill="#FDC826"/>
<path d="M918.603 105.301L961.904 180.301H875.301L918.603 105.301Z" fill="#FDC826"/>
<path d="M918.603 105.301L1005.21 105.301L961.904 180.301L918.603 105.301Z" fill="#FDC826"/>
<path d="M961.753 180.04L1048.36 180.04L1005.05 255.04L961.753 180.04Z" fill="#FDC826"/>
<path d="M961.753 180.04L1005.05 105.04L1048.36 180.04L961.753 180.04Z" fill="#FDC826"/>
<path d="M918.452 255.04L961.753 180.04L1005.05 255.04L918.452 255.04Z" fill="#FDC826"/>
<path d="M918.452 255.04L875.151 180.04L961.753 180.04L918.452 255.04Z" fill="#FDC826"/>
<path d="M1042.6 140.301L1085.9 215.301H999.301L1042.6 140.301Z" fill="#FDC826"/>
<path d="M1042.6 140.301L1129.21 140.301L1085.9 215.301L1042.6 140.301Z" fill="#FDC826"/>
<path d="M1085.75 215.04L1172.36 215.04L1129.05 290.04L1085.75 215.04Z" fill="#FDC826"/>
<path d="M1085.75 215.04L1129.05 140.04L1172.36 215.04L1085.75 215.04Z" fill="#FDC826"/>
<path d="M1042.45 290.04L1085.75 215.04L1129.05 290.04L1042.45 290.04Z" fill="#FDC826"/>
<path d="M1042.45 290.04L999.151 215.04L1085.75 215.04L1042.45 290.04Z" fill="#FDC826"/>
<path d="M1169.6 212.301L1212.9 287.301H1126.3L1169.6 212.301Z" fill="#FDC826"/>
<path d="M1169.6 212.301L1256.21 212.301L1212.9 287.301L1169.6 212.301Z" fill="#FDC826"/>
<path d="M1212.75 287.04L1299.36 287.04L1256.05 362.04L1212.75 287.04Z" fill="#FDC826"/>
<path d="M1212.75 287.04L1256.05 212.04L1299.36 287.04L1212.75 287.04Z" fill="#FDC826"/>
<path d="M1169.45 362.04L1212.75 287.04L1256.05 362.04L1169.45 362.04Z" fill="#FDC826"/>
<path d="M1169.45 362.04L1126.15 287.04L1212.75 287.04L1169.45 362.04Z" fill="#FDC826"/>
<path d="M1166.6 104.301L1209.9 179.301H1123.3L1166.6 104.301Z" fill="#FDC826"/>
<path d="M1166.6 104.301L1253.21 104.301L1209.9 179.301L1166.6 104.301Z" fill="#FDC826"/>
<path d="M1209.75 179.04L1296.36 179.04L1253.05 254.04L1209.75 179.04Z" fill="#FDC826"/>
<path d="M1209.75 179.04L1253.05 104.04L1296.36 179.04L1209.75 179.04Z" fill="#FDC826"/>
<path d="M1166.45 254.04L1209.75 179.04L1253.05 254.04L1166.45 254.04Z" fill="#FDC826"/>
<path d="M1166.45 254.04L1123.15 179.04L1209.75 179.04L1166.45 254.04Z" fill="#FDC826"/>
<path d="M1295.6 136.301L1338.9 211.301H1252.3L1295.6 136.301Z" fill="#FDC826"/>
<path d="M1295.6 136.301L1382.21 136.301L1338.9 211.301L1295.6 136.301Z" fill="#FDC826"/>
<path d="M1338.75 211.04L1425.36 211.04L1382.05 286.04L1338.75 211.04Z" fill="#FDC826"/>
<path d="M1338.75 211.04L1382.05 136.04L1425.36 211.04L1338.75 211.04Z" fill="#FDC826"/>
<path d="M1295.45 286.04L1338.75 211.04L1382.05 286.04L1295.45 286.04Z" fill="#FDC826"/>
<path d="M1295.45 286.04L1252.15 211.04L1338.75 211.04L1295.45 286.04Z" fill="#FDC826"/>
<path d="M1419.6 211.301L1462.9 286.301H1376.3L1419.6 211.301Z" fill="#FDC826"/>
<path d="M1419.6 211.301L1506.21 211.301L1462.9 286.301L1419.6 211.301Z" fill="#FDC826"/>
<path d="M1462.75 286.04L1549.36 286.04L1506.05 361.04L1462.75 286.04Z" fill="#FDC826"/>
<path d="M1462.75 286.04L1506.05 211.04L1549.36 286.04L1462.75 286.04Z" fill="#FDC826"/>
<path d="M1419.45 361.04L1462.75 286.04L1506.05 361.04L1419.45 361.04Z" fill="#FDC826"/>
<path d="M1419.45 361.04L1376.15 286.04L1462.75 286.04L1419.45 361.04Z" fill="#FDC826"/>
<path d="M1407.6 98.3013L1450.9 173.301H1364.3L1407.6 98.3013Z" fill="#FDC826"/>
<path d="M1407.6 98.3013L1494.21 98.3013L1450.9 173.301L1407.6 98.3013Z" fill="#FDC826"/>
<path d="M1450.75 173.04L1537.36 173.04L1494.05 248.04L1450.75 173.04Z" fill="#FDC826"/>
<path d="M1450.75 173.04L1494.05 98.0403L1537.36 173.04L1450.75 173.04Z" fill="#FDC826"/>
<path d="M1407.45 248.04L1450.75 173.04L1494.05 248.04L1407.45 248.04Z" fill="#FDC826"/>
<path d="M1407.45 248.04L1364.15 173.04L1450.75 173.04L1407.45 248.04Z" fill="#FDC826"/>
<path d="M1543.6 136.301L1586.9 211.301H1500.3L1543.6 136.301Z" fill="#FDC826"/>
<path d="M1543.6 136.301L1630.21 136.301L1586.9 211.301L1543.6 136.301Z" fill="#FDC826"/>
<path d="M1586.75 211.04L1673.36 211.04L1630.05 286.04L1586.75 211.04Z" fill="#FDC826"/>
<path d="M1586.75 211.04L1630.05 136.04L1673.36 211.04L1586.75 211.04Z" fill="#FDC826"/>
<path d="M1543.45 286.04L1586.75 211.04L1630.05 286.04L1543.45 286.04Z" fill="#FDC826"/>
<path d="M1543.45 286.04L1500.15 211.04L1586.75 211.04L1543.45 286.04Z" fill="#FDC826"/>
<path d="M1667.6 211.301L1710.9 286.301H1624.3L1667.6 211.301Z" fill="#FDC826"/>
<path d="M1667.6 211.301L1754.21 211.301L1710.9 286.301L1667.6 211.301Z" fill="#FDC826"/>
<path d="M1710.75 286.04L1797.36 286.04L1754.05 361.04L1710.75 286.04Z" fill="#FDC826"/>
<path d="M1710.75 286.04L1754.05 211.04L1797.36 286.04L1710.75 286.04Z" fill="#FDC826"/>
<path d="M1667.45 361.04L1710.75 286.04L1754.05 361.04L1667.45 361.04Z" fill="#FDC826"/>
<path d="M1667.45 361.04L1624.15 286.04L1710.75 286.04L1667.45 361.04Z" fill="#FDC826"/>
<path d="M1669.6 110.301L1712.9 185.301H1626.3L1669.6 110.301Z" fill="#FDC826"/>
<path d="M1669.6 110.301L1756.21 110.301L1712.9 185.301L1669.6 110.301Z" fill="#FDC826"/>
<path d="M1712.75 185.04L1799.36 185.04L1756.05 260.04L1712.75 185.04Z" fill="#FDC826"/>
<path d="M1712.75 185.04L1756.05 110.04L1799.36 185.04L1712.75 185.04Z" fill="#FDC826"/>
<path d="M1669.45 260.04L1712.75 185.04L1756.05 260.04L1669.45 260.04Z" fill="#FDC826"/>
<path d="M1669.45 260.04L1626.15 185.04L1712.75 185.04L1669.45 260.04Z" fill="#FDC826"/>
<path d="M1796.6 136.301L1839.9 211.301H1753.3L1796.6 136.301Z" fill="#FDC826"/>
<path d="M1796.6 136.301L1883.21 136.301L1839.9 211.301L1796.6 136.301Z" fill="#FDC826"/>
<path d="M1839.75 211.04L1926.36 211.04L1883.05 286.04L1839.75 211.04Z" fill="#FDC826"/>
<path d="M1839.75 211.04L1883.05 136.04L1926.36 211.04L1839.75 211.04Z" fill="#FDC826"/>
<path d="M1796.45 286.04L1839.75 211.04L1883.05 286.04L1796.45 286.04Z" fill="#FDC826"/>
<path d="M1796.45 286.04L1753.15 211.04L1839.75 211.04L1796.45 286.04Z" fill="#FDC826"/>
<path d="M1833.6 136.301L1876.9 211.301H1790.3L1833.6 136.301Z" fill="#FDC826"/>
<path d="M1833.6 136.301L1920.21 136.301L1876.9 211.301L1833.6 136.301Z" fill="#FDC826"/>
<path d="M1876.75 211.04L1963.36 211.04L1920.05 286.04L1876.75 211.04Z" fill="#FDC826"/>
<path d="M1876.75 211.04L1920.05 136.04L1963.36 211.04L1876.75 211.04Z" fill="#FDC826"/>
<path d="M1833.45 286.04L1876.75 211.04L1920.05 286.04L1833.45 286.04Z" fill="#FDC826"/>
<path d="M1833.45 286.04L1790.15 211.04L1876.75 211.04L1833.45 286.04Z" fill="#FDC826"/>
</svg>
